<?xml version="1.0" encoding="utf-8"?>
<!-- Generator: Adobe Illustrator 27.5.0, SVG Export Plug-In . SVG Version: 6.00 Build 0)  -->
<svg version="1.1" id="Слой_1" xmlns="http://www.w3.org/2000/svg" xmlns:xlink="http://www.w3.org/1999/xlink" x="0px" y="0px"
	 viewBox="0 0 2864.318 2000" style="enable-background:new 0 0 2864.318 2000;" xml:space="preserve">
<g>
	<rect y="0.001" style="fill:#FAFAFA;" width="2864.318" height="2000"/>
	<defs>
		<filter id="Adobe_OpacityMaskFilter" filterUnits="userSpaceOnUse" x="68.767" y="696.542" width="2726.786" height="1264.93">
			<feFlood  style="flood-color:white;flood-opacity:1" result="back"/>
			<feBlend  in="SourceGraphic" in2="back" mode="normal"/>
		</filter>
	</defs>
	<mask maskUnits="userSpaceOnUse" x="68.767" y="696.542" width="2726.786" height="1264.93" id="SVGID_1_">
		<g style="filter:url(#Adobe_OpacityMaskFilter);">
			<defs>
				
					<filter id="Adobe_OpacityMaskFilter_00000043455890112565625650000006796246688233649825_" filterUnits="userSpaceOnUse" x="68.767" y="696.542" width="2726.786" height="1264.93">
					<feFlood  style="flood-color:white;flood-opacity:1" result="back"/>
					<feBlend  in="SourceGraphic" in2="back" mode="normal"/>
				</filter>
			</defs>
			<mask maskUnits="userSpaceOnUse" x="68.767" y="696.542" width="2726.786" height="1264.93" id="SVGID_1_">
				<g style="filter:url(#Adobe_OpacityMaskFilter_00000043455890112565625650000006796246688233649825_);">
				</g>
			</mask>
			
				<linearGradient id="SVGID_00000024709136396450792240000014998899040986623653_" gradientUnits="userSpaceOnUse" x1="1432.1597" y1="800.9612" x2="1432.1597" y2="1180.3884">
				<stop  offset="0" style="stop-color:#FFFFFF"/>
				<stop  offset="1" style="stop-color:#000000"/>
			</linearGradient>
			<polygon style="mask:url(#SVGID_1_);fill:url(#SVGID_00000024709136396450792240000014998899040986623653_);" points="
				2795.553,871.196 2795.553,1961.473 68.767,1961.473 68.767,1125.118 68.767,1125.118 68.767,907.646 156.968,907.646 
				156.968,1018.428 269.309,1018.428 313.753,1070.149 358.85,1070.149 358.85,802.136 462.6,802.136 462.6,871.196 
				550.654,871.196 550.654,1004.506 668.94,1004.506 668.94,837.236 762.287,837.236 762.287,907.604 810.828,907.604 
				852.842,858.708 900.658,858.708 900.658,696.542 1034.314,696.542 1034.314,937.219 1170.944,937.219 1170.944,995.226 
				1223.908,995.226 1223.908,907.646 1425.789,907.646 1425.789,1004.506 1503.004,1004.506 1503.004,871.196 1620.783,871.196 
				1620.783,1070.149 1627.672,1070.149 1627.672,802.136 1731.459,802.136 1731.459,871.196 1819.477,871.196 1819.477,1004.506 
				1937.727,1004.506 1937.727,837.236 2031.072,837.236 2031.072,907.604 2079.686,907.604 2121.7,858.708 2169.479,858.708 
				2169.479,696.542 2303.101,696.542 2303.101,937.219 2439.803,937.219 2439.803,995.226 2492.766,995.226 2492.766,907.646 
				2599.054,907.646 2599.054,1004.506 2771.79,1004.506 2771.79,871.196 			"/>
		</g>
	</mask>
	
		<linearGradient id="SVGID_00000134970172076536722890000014704988602442669714_" gradientUnits="userSpaceOnUse" x1="1432.1597" y1="800.9612" x2="1432.1597" y2="1180.3884">
		<stop  offset="0" style="stop-color:#EDEDED"/>
		<stop  offset="1" style="stop-color:#FFFFFF"/>
	</linearGradient>
	<polygon style="fill:url(#SVGID_00000134970172076536722890000014704988602442669714_);" points="2795.553,871.196 
		2795.553,1961.473 68.767,1961.473 68.767,1125.118 68.767,1125.118 68.767,907.646 156.968,907.646 156.968,1018.428 
		269.309,1018.428 313.753,1070.149 358.85,1070.149 358.85,802.136 462.6,802.136 462.6,871.196 550.654,871.196 550.654,1004.506 
		668.94,1004.506 668.94,837.236 762.287,837.236 762.287,907.604 810.828,907.604 852.842,858.708 900.658,858.708 
		900.658,696.542 1034.314,696.542 1034.314,937.219 1170.944,937.219 1170.944,995.226 1223.908,995.226 1223.908,907.646 
		1425.789,907.646 1425.789,1004.506 1503.004,1004.506 1503.004,871.196 1620.783,871.196 1620.783,1070.149 1627.672,1070.149 
		1627.672,802.136 1731.459,802.136 1731.459,871.196 1819.477,871.196 1819.477,1004.506 1937.727,1004.506 1937.727,837.236 
		2031.072,837.236 2031.072,907.604 2079.686,907.604 2121.7,858.708 2169.479,858.708 2169.479,696.542 2303.101,696.542 
		2303.101,937.219 2439.803,937.219 2439.803,995.226 2492.766,995.226 2492.766,907.646 2599.054,907.646 2599.054,1004.506 
		2771.79,1004.506 2771.79,871.196 	"/>
	<defs>
		
			<filter id="Adobe_OpacityMaskFilter_00000028315259196146148050000013906703017701362353_" filterUnits="userSpaceOnUse" x="68.767" y="983.768" width="2726.786" height="592.872">
			<feFlood  style="flood-color:white;flood-opacity:1" result="back"/>
			<feBlend  in="SourceGraphic" in2="back" mode="normal"/>
		</filter>
	</defs>
	
		<mask maskUnits="userSpaceOnUse" x="68.767" y="983.768" width="2726.786" height="592.872" id="SVGID_00000015348494986582327200000014299561797936818109_">
		<g style="filter:url(#Adobe_OpacityMaskFilter_00000028315259196146148050000013906703017701362353_);">
			<defs>
				
					<filter id="Adobe_OpacityMaskFilter_00000063612132807695671200000012345310433177353917_" filterUnits="userSpaceOnUse" x="68.767" y="983.768" width="2726.786" height="592.872">
					<feFlood  style="flood-color:white;flood-opacity:1" result="back"/>
					<feBlend  in="SourceGraphic" in2="back" mode="normal"/>
				</filter>
			</defs>
			
				<mask maskUnits="userSpaceOnUse" x="68.767" y="983.768" width="2726.786" height="592.872" id="SVGID_00000015348494986582327200000014299561797936818109_">
				<g style="filter:url(#Adobe_OpacityMaskFilter_00000063612132807695671200000012345310433177353917_);">
				</g>
			</mask>
			
				<linearGradient id="SVGID_00000004509904188159651220000013761329179470151311_" gradientUnits="userSpaceOnUse" x1="1432.1597" y1="963.6271" x2="1432.1597" y2="1280.9603">
				<stop  offset="0" style="stop-color:#FFFFFF"/>
				<stop  offset="1" style="stop-color:#000000"/>
			</linearGradient>
			
				<polygon style="mask:url(#SVGID_00000015348494986582327200000014299561797936818109_);fill:url(#SVGID_00000004509904188159651220000013761329179470151311_);" points="
				68.767,1576.641 68.767,1031.418 171.464,1031.418 171.464,1131.031 289.468,1131.031 325.481,1167.045 717.037,1167.045 
				777.955,1106.129 900.938,1106.129 900.938,1003.834 1008.477,1003.834 1008.477,1141.76 1206.525,1141.76 1282.842,1065.442 
				1527.734,1065.442 1527.734,1194.053 1636.543,1194.053 1689.508,1141.087 1823.509,1141.087 1861.439,1179.019 
				2027.332,1179.019 2027.332,1036.476 2145.336,1036.476 2145.336,1083.523 2238.818,1083.523 2238.818,983.768 2324.639,983.768 
				2324.639,1134.53 2565.242,1134.53 2587.743,1157.03 2795.553,1157.03 2795.553,1576.641 			"/>
		</g>
	</mask>
	
		<linearGradient id="SVGID_00000083056736645913724810000015755477198115283903_" gradientUnits="userSpaceOnUse" x1="1432.1597" y1="963.6271" x2="1432.1597" y2="1280.9603">
		<stop  offset="0" style="stop-color:#D4D4D4"/>
		<stop  offset="1" style="stop-color:#FFFFFF"/>
	</linearGradient>
	<polygon style="fill:url(#SVGID_00000083056736645913724810000015755477198115283903_);" points="68.767,1576.641 68.767,1031.418 
		171.464,1031.418 171.464,1131.031 289.468,1131.031 325.481,1167.045 717.037,1167.045 777.955,1106.129 900.938,1106.129 
		900.938,1003.834 1008.477,1003.834 1008.477,1141.76 1206.525,1141.76 1282.842,1065.442 1527.734,1065.442 1527.734,1194.053 
		1636.543,1194.053 1689.508,1141.087 1823.509,1141.087 1861.439,1179.019 2027.332,1179.019 2027.332,1036.476 2145.336,1036.476 
		2145.336,1083.523 2238.818,1083.523 2238.818,983.768 2324.639,983.768 2324.639,1134.53 2565.242,1134.53 2587.743,1157.03 
		2795.553,1157.03 2795.553,1576.641 	"/>
	<rect y="1601.639" style="fill:#FFFFFF;" width="2864.318" height="398.359"/>
	
		<linearGradient id="SVGID_00000135668195713351144230000006963583278548562100_" gradientUnits="userSpaceOnUse" x1="219.1054" y1="1748.7573" x2="2645.2002" y2="1748.7573">
		<stop  offset="0" style="stop-color:#FF9F55"/>
		<stop  offset="1" style="stop-color:#FFD255"/>
	</linearGradient>
	<path style="fill:url(#SVGID_00000135668195713351144230000006963583278548562100_);" d="M2645.2,1748.758
		c0,37.295-543.101,67.528-1213.048,67.528s-1213.047-30.233-1213.047-67.528s543.1-67.529,1213.047-67.529
		S2645.2,1711.463,2645.2,1748.758z"/>
	<g>
		<g>
			<path style="fill:#E55353;" d="M1015.574,1702.95c0,0,16.708,28.321,23.763,32.947c9.575,6.28,3.576,12.63-0.972,12.636
				c-4.548,0.006-27.773,1.667-32.891-4.14c-5.118-5.808-7.656-23.214-12.416-27.766c-4.76-4.551-9.117-21.349,2.318-27.045
				C1007.916,1683.337,1015.574,1702.95,1015.574,1702.95z"/>
		</g>
		<g>
			<path style="fill:#3B3B40;" d="M1009.307,1688.102c0,0,18.168,35.559,21.466,40.459c3.298,4.899-6.211,4.894-12.103,2.566
				c-5.892-2.328-21.18-25.918-22.84-30.45c-1.66-4.533-0.453-11.094-0.453-11.094L1009.307,1688.102z"/>
		</g>
		<g>
			<polygon style="fill:#E55353;" points="988.953,1708.338 993.369,1742.343 995.71,1742.446 994.982,1717.982 			"/>
		</g>
		<g>
			<path style="fill:#E55353;" d="M872.317,1675.337c0,0,4.003,32.638,8.623,39.697c6.269,9.582-1.767,13.007-5.939,11.195
				c-4.172-1.812-26.126-9.565-28.498-16.935c-2.372-7.368,2.254-24.339-0.292-30.413c-2.545-6.073,0.171-23.214,12.93-23.867
				C873.131,1654.298,872.317,1675.337,872.317,1675.337z"/>
		</g>
		<g>
			<path style="fill:#3B3B40;" d="M872.503,1659.221c0,0,2.451,39.856,3.517,45.666c1.066,5.81-7.648,2.005-12.119-2.482
				c-4.472-4.486-9.063-32.221-8.775-37.039c0.289-4.817,4.017-10.351,4.017-10.351L872.503,1659.221z"/>
		</g>
		<g>
			<polygon style="fill:#E55353;" points="845.76,1669.643 836.226,1702.58 838.329,1703.609 847.435,1680.893 			"/>
		</g>
		<g>
			<path style="fill:#EEA886;" d="M1012.889,1385.291c-0.541-2.64-20.724-41.743-24.359-53.523
				c-3.637-11.781-6.77-22.575-8.596-27.237c-0.12-0.308-0.315-0.843-0.574-1.562c-1.239-3.46-3.926-11.185-6.703-18.399
				c-0.195-0.505-0.391-1.007-0.586-1.506l-0.283-2.756c-1.954-4.999-0.016-7.88,0.023-11.86c0.011-1.195-0.147-2.491-0.638-3.971
				c-0.017-0.055-0.034-0.108-0.053-0.16c-2.296-6.709-4.021-12.567-4.358-15.857c-1.125-10.933-7.031-59.578-7.031-59.578
				s19.127,9.903,21.254,17.547c3.227,11.598,6.516,28.851,7.33,34.156c0.815,5.306,9.132,49.48,10.864,58.464
				c1.731,8.982,3.724,16.594,6.221,22.534c2.497,5.941,19.11,58.907,20.138,63.651
				C1026.563,1389.979,1013.43,1387.93,1012.889,1385.291z"/>
			<path style="fill:#EEA886;" d="M1012.636,1379.748c0,0-0.338,6.188-1.653,12.656c-0.641,3.154,1.998,22.729,2.526,25.23
				c0.442,2.098,1.64,0.618,2.127-0.893c0.28-0.866,0.451-7.812,1.109-11.596c0.554-3.179,1.272-4.451,1.962-3.564
				c0.69,0.887,3.706,13.25,3.436,18.786c-0.268,5.537,2.949,17.668,5.474,15.425c2.524-2.244,5.454-25.619,3.522-33.923
				c-1.932-8.305-6.659-18.336-6.659-18.336L1012.636,1379.748z"/>
		</g>
		<g>
			<path style="fill:#3B3B40;" d="M942.059,1427.523c0.832,4.02,6.158,20.841,12.121,39.532v0.004
				c5.438,17.04,11.406,35.63,14.984,47.494c1.336,4.427,2.34,7.917,2.858,10.039c3.434,14.046-0.429,36.08-1.676,54.493
				c-1.25,18.416,25.483,121.591,25.483,121.591c4.682,2.184,13.477-12.575,13.477-12.575c-3.434-6.555-2.951-122.933-1.078-130.111
				c1.873-7.177,3.121-27.154,1.247-34.958c-0.383-1.603-0.569-3.718-0.612-6.263c-0.158-9.85,1.87-26.132,3.109-43.988
				c1.561-22.474-7.178-78.343-8.425-83.337c-0.115-0.46-0.298-1.105-0.53-1.899c-2.299-7.835-9.702-30.081-9.702-30.081
				c-15.014-4.467-26.319-5.274-34.758-3.554c-11.171,2.274-17.318,8.979-20.388,17.492
				C930.828,1391.714,940.979,1422.308,942.059,1427.523z"/>
		</g>
		<g>
			<path style="fill:#3B3B40;" d="M857.545,1657.777l15.203,5.346c2.578-12.479,64.316-99.828,68.082-109.502
				c3.766-9.676,7.782-28.402,7.782-35.27c0-1.226,0.089-3.295,0.263-5.979c0.666-10.408,2.572-30.037,5.305-45.316
				c0.508-2.85,1.046-5.547,1.611-8.008c3.023-13.175,3.549-58.194,3.583-84.669c0.017-11.781-0.065-19.891-0.065-19.891
				s-0.262-0.208-0.752-0.578c-5.692-4.307-42.2-30.566-54.93-6.02c-3.361,6.485-5.556,13.447-6.889,20.705
				c-4.084,22.246-0.077,47.302,3.217,70.129c2.818,19.531,8.22,47.131,9.772,67.61c0.856,11.267,0.546,20.383-2.002,24.813
				c-7.181,12.485-14.198,23.054-28.715,67.106C874.287,1612.584,857.545,1657.777,857.545,1657.777z"/>
		</g>
		<g>
			<path style="fill:#3C4145;" d="M968.281,1127.239c0,0,7.94-51.362-34.6-50.415c-42.54,0.948-41.971,26.345-41.213,51.553
				c0.758,25.207,17.058,23.313-1.327,58.375c-18.384,35.063,15.921,35.063,15.921,35.063l26.619-36.579L968.281,1127.239z"/>
		</g>
		<g>
			<path style="fill:#EEA886;" d="M938.335,1081.752c0,0,28.809,4.549,29.946,45.487c1.137,40.938-7.771,49.657-32.978,41.129
				c-25.208-8.529-33.168-51.363-33.736-57.997C900.998,1103.737,899.481,1076.824,938.335,1081.752z"/>
		</g>
		<g>
			<path style="fill:#F54242;" d="M887.744,1224.146c-0.11,14.097,16.093,47.792,18.59,58.196
				c2.497,10.404,6.451,13.734,3.121,27.052c-3.329,13.318-13.65,58.369-13.234,62.323c0.416,3.954,92.854,18.532,106.797,15.827
				c0,0-17.041-63.595-18.289-70.878c-1.249-7.283,1.517-34.587,2.141-42.286c0.625-7.7,8.418-24.271,8.155-31.988
				c-0.268-7.861-4.128-14.65-9.53-23.047c-1.673-2.604-3.432-5.255-5.19-7.833c-5.723-8.398-11.441-16.023-14.248-18.649
				c-2.088-1.952-4.044-3.448-5.735-4.578c-0.011-0.006-0.017-0.008-0.017-0.008c-3.529-2.354-5.901-3.113-5.901-3.113
				l-24.763-3.954c0,0-15.434,5.584-24.312,7.661C905.329,1188.871,888.002,1191.398,887.744,1224.146z"/>
		</g>
		<g>
			<path style="fill:#F54242;" d="M960.305,1188.277l14.352,22.619l13.247,20.876c-0.03-0.112-0.913-3.273-2.409-12.427
				c-0.285-1.738-0.591-3.692-0.918-5.881c-0.096-0.647-0.237-1.291-0.416-1.926c0,0,0,0,0-0.002
				c-5.669-13.069-23.198-22.926-23.839-23.252C960.31,1188.279,960.305,1188.277,960.305,1188.277z"/>
		</g>
		<g>
			<path style="fill:#EEA886;" d="M888.58,1212.248c0,0,3.979-26.83,23.64-22.408c18.892,4.25,1.188,39.428-0.199,43.592
				c-1.388,4.165-15.38,38.186-16.594,42.644c-3.836,14.096-0.241,14.429,5.531,17.753c17.04,9.813,52.074,9.168,56.114,11.865
				c4.041,2.697,3.802,11.094-2.986,11.386c-8.832,0.381-59.301-4.37-66.342-5.061c-6.825-0.669-20.419-1.239-16.851-25.505
				C873.297,1270.171,888.58,1212.248,888.58,1212.248z"/>
		</g>
		<g>
			<path style="fill:#EEA886;" d="M919.096,1149.928c2.498,4.716,5.134,33.988,5.134,33.988s35.236,13.317,31.63,5.784
				c-1.635-3.419-2.116-7.855-2.149-11.681c-0.031-3.015,0.217-5.648,0.392-7.109c0.092-0.771,0.162-1.214,0.162-1.214
				S916.6,1145.211,919.096,1149.928z"/>
		</g>
		<g>
			<path style="fill:#3C4145;" d="M950.086,1111.13c0,0-14.783,24.069-28.24,33.547c-13.457,9.476-6.634,17.058-6.634,17.058
				s-35.11-73.917-1.729-79.035c33.382-5.117,53.851-5.496,54.799,44.54C968.281,1127.239,953.118,1110.751,950.086,1111.13z"/>
		</g>
		<g>
			<path style="fill:#A77860;" d="M934.01,1167.895c5.408,7.978,19.698,10.125,19.698,10.125s0,0,0.002,0
				c-0.031-3.015,0.217-5.648,0.392-7.109C944.92,1172.678,934.01,1167.895,934.01,1167.895z"/>
		</g>
		<path style="fill:#F54242;" d="M984.1,1211.384L984.1,1211.384c0.001-0.001,0.767,1.585,1.395,7.962l-5.19-7.833
			c0,0-9.27-13.29-12.445-16.745c-3.176-3.456-7.538-6.482-7.538-6.482S978.558,1197.048,984.1,1211.384z"/>
		<path style="fill:#2F4563;" d="M978.496,1240.08l-55.53-4.596c-2.366-0.196-4.438,1.573-4.615,3.94l-6.889,91.985
			c-0.173,2.308,1.522,4.334,3.824,4.57l53.314,5.488c2.357,0.242,4.461-1.477,4.691-3.835l9.105-92.877
			C982.631,1242.382,980.874,1240.276,978.496,1240.08z"/>
		<path style="fill:#EEA886;" d="M926.078,1301.95c0,0,10.521,1.761,11.503,1.602c0.982-0.159,5.138-6.972,9.957-8.192
			c4.819-1.222,10.843-2.164,12.327-3.09c1.484-0.926,1.892,3.798-2.736,5.729c-4.627,1.932-5.787,4.516,2.878,6.255
			c4.795,0.962,22.716-1.04,21.227,1.987c-0.873,1.776-18.143,3.048-18.143,3.048s18.634-0.085,19.268,1.041
			c1.25,2.221-17.442,3.004-18.222,2.932c0,0,16.016,0.92,16.155,2.355c0.174,1.786-16.049,1.026-15.899,1.318
			c0,0,12.732,0.878,12.604,1.963c-0.167,1.425-11.372,1.598-13.542,1.342c-2.171-0.254-24.122-2.752-27.801-3.485
			c-3.706-0.739-9.9-1.165-9.9-1.165L926.078,1301.95z"/>
		<path style="fill:#EEA886;" d="M905.987,1296.244c0,0,10.418,3.657,20.091,5.706c9.673,2.048-0.325,13.64-0.325,13.64
			s-16.757-1.549-24.814-2.335C897.04,1312.875,905.987,1296.244,905.987,1296.244z"/>
		<path style="fill:#F54242;" d="M913.983,1231.202c0,0-22.615-8.87-29.307-9.387c0,0,4.55-36.317,26.764-32.468
			C933.654,1193.197,913.983,1231.202,913.983,1231.202z"/>
		<path style="fill:#F54242;" d="M899.956,1438.725c2.818,19.531,8.22,47.131,9.772,67.61c0,0,15.93,3.18,39.147,6.037
			c6.286,0.774,13.105,1.522,20.289,2.182c12.442,1.138,25.972,1.997,39.699,2.216c-0.158-9.85,1.87-26.132,3.109-43.988
			c1.561-22.474-7.178-78.343-8.425-83.337c-0.115-0.46-0.298-1.105-0.53-1.899c-11.229-6.181-27.339-10.353-43.643-13.166
			c-7.164-1.236-14.364-2.211-21.204-2.977c-21.377-2.397-39.231-2.77-41.431-2.807
			C892.655,1390.842,896.662,1415.897,899.956,1438.725z"/>
		<path style="fill:#EEA886;" d="M954.403,1185.164c0,0,16.604,25.529,10.983,27.76c-5.621,2.23-36.044-2.976-48.979-27.226
			C916.408,1185.698,935.748,1175.781,954.403,1185.164z"/>
	</g>
	<g>
		<path style="fill:#525252;" d="M643.744,1413.982l-6.192-10.727c-1.803-3.122-0.733-7.115,2.39-8.918l35.072-20.249
			c3.123-1.803,7.115-0.733,8.918,2.39l6.193,10.726c1.803,3.123,0.732,7.116-2.39,8.918l-35.072,20.249
			C649.54,1418.174,645.547,1417.104,643.744,1413.982z"/>
		<g>
			<g>
				<g>
					<g>
						<g>
							<path style="fill:#EEA886;" d="M649.443,1409.117c0,0-2.454-1.382-3.231-2.509c0,0-1.259-2.161-2.246-3.642
								c-0.315-0.47-0.6-0.871-0.812-1.111c-0.881-1.004-3.115-2.944-4.555-5.951c-1.438-3.002-4.313-17.553-4.313-17.553
								l7.424-3.785l6.444-4.536c0,0,17.041,11.212,18.705,13.854c0.161,0.26,0.312,0.521,0.433,0.777
								c1.192,2.375,1.081,4.644,1.566,5.96c0.174,0.485,1.587,5.423,0.719,6.688c-1.202,1.759-2.749,2.49-4.208,2.464
								c0,0-2.506,3.34-5.236,4.009c0,0-2.212,3.154-5.845,3.02C654.289,1406.803,651.685,1409.752,649.443,1409.117z"/>
						</g>
					</g>
				</g>
			</g>
		</g>
		<g>
			<path style="fill:#0E1E2B;" d="M510.35,1444.86l-33.65-7.51c-3.417-0.763-5.577-4.163-4.815-7.581l4.735-21.22
				c0.763-3.417,4.163-5.577,7.581-4.814l33.65,7.509c3.417,0.764,5.577,4.164,4.815,7.581l-4.735,21.22
				C517.168,1443.463,513.768,1445.622,510.35,1444.86z M483.273,1407.894c-1.125-0.25-2.243,0.461-2.494,1.585l-4.735,21.219
				c-0.251,1.125,0.46,2.243,1.584,2.494l33.649,7.51c1.125,0.251,2.243-0.46,2.494-1.584l4.735-21.22
				c0.251-1.124-0.46-2.243-1.584-2.493L483.273,1407.894z"/>
		</g>
		<g>
			<g>
				<g>
					<g>
						<g>
							<path style="fill:#EEA886;" d="M486.571,1416.024c0,0-0.887-2.571-0.726-3.885c0,0,0.476-2.367,0.712-4.071
								c0.073-0.54,0.125-1.013,0.126-1.322c0.008-1.29-0.363-4.125,0.524-7.22c0.885-3.092,8.139-15.446,8.139-15.446l7.79,2.023
								l7.564,0.855c0,0,5.124,19.025,4.632,22.002c-0.05,0.291-0.109,0.576-0.187,0.84c-0.661,2.48-2.195,4.047-2.689,5.31
								c-0.186,0.462-2.33,4.935-3.769,5.294c-1.996,0.5-3.583,0.035-4.62-0.919c0,0-3.951,0.807-6.353-0.46
								c0,0-3.621,0.86-6.16-1.566C491.556,1417.459,487.784,1417.92,486.571,1416.024z"/>
						</g>
					</g>
				</g>
			</g>
		</g>
		<g>
			<path style="fill:#5B94E2;" d="M567.375,1241.78c-1.497,1.931-7.438,12.985-13.725,24.783c0,0,0,0,0,0.004
				c-1.039,1.946-2.086,3.911-3.125,5.861c-0.832,1.567-1.665,3.13-2.475,4.654c-0.893,1.675-1.768,3.308-2.61,4.884
				c-3.513,6.572-6.474,12.041-7.952,14.497c-4.238,7.054-11.129,32.721-12.808,37.802c-1.68,5.084-9.969,55.353-9.969,55.353
				s-26.509,0.088-25.7-1.913c0.814-2.003,10.899-56.261,12.92-64.429c2.667-10.735,12.906-39.597,13.931-41.735
				c1.021-2.138,22.599-47.147,25.518-54.885c3.092-8.191,4.695-15.596,17.578-30.916c12.879-15.314,27.6-7.302,27.6-7.302
				C598.558,1197.027,570.439,1237.822,567.375,1241.78z"/>
		</g>
		<g>
			
				<rect x="420.787" y="1430.885" transform="matrix(0.976 0.2178 -0.2178 0.976 333.3959 -70.2712)" style="fill:#665955;" width="129.355" height="92.678"/>
		</g>
		<g>
			
				<rect x="425.029" y="1431.352" transform="matrix(0.976 0.2178 -0.2178 0.976 329.357 -71.6517)" style="fill:#877671;" width="129.355" height="53.72"/>
		</g>
		<path style="fill:#EEA886;" d="M574.322,1178.634c1.628-8.663,0-21.177,0-21.177s31.646,14.628,26.168,18.595
			c-1.427,1.034-2.414,3.022-3.093,5.398c-1.932,6.75-1.348,16.942-1.348,16.942l10.46,12.205
			C615.777,1223.316,573.531,1182.844,574.322,1178.634z"/>
		<g>
			<g>
				<path style="fill:#34395C;" d="M469.433,1655.003c0,0,2.925,11.729,5.564,26.228c2.639,14.497,14.909,25.142,16.688,27.703
					c1.778,2.561,9.767,12.845,2.78,14.09c-6.987,1.245-35.661-17.897-43.512-28.9c0,0-4.685-10.414-5.323-11.028
					c-0.639-0.614-4.639,2.486-4.639,2.486l-7.334-5.063c0,0-3.103-2.329-4.235-3.654c-1.133-1.326,1.534-8.734,1.938-9.434
					c0.466-0.807,13.294-18.45,21.574-22.262C461.213,1641.359,469.433,1655.003,469.433,1655.003z"/>
			</g>
		</g>
		<g>
			<g>
				<path style="fill:#3C4169;" d="M708.952,1687.185c0,0,10.071,6.088,21.86,14.275c11.788,8.188,27.433,7.19,30.403,7.746
					c2.97,0.558,15.47,2.217,11.602,7.812c-3.867,5.596-36.471,11.868-49.372,9.622c0,0-10.354-3.99-11.211-3.979
					c-0.855,0.01-1.423,4.857-1.423,4.857l-8.453,1.49c0,0-3.705,0.501-5.387,0.356c-1.681-0.144-4.831-6.916-5.198-7.806
					c-0.345-0.836-3.739-21.714-0.768-29.952C693.978,1683.369,708.952,1687.185,708.952,1687.185z"/>
			</g>
		</g>
		<g>
			<g>
				<path style="fill:#EEA886;" d="M478.715,1636.469c0,0-9.153,16.91-9.728,19.907c-0.575,2.992-14.149,3.076-16.806-9.688
					c0,0,10.62-21.342,10.278-21.911C462.117,1624.208,478.715,1636.469,478.715,1636.469z"/>
			</g>
		</g>
		<g>
			<g>
				<path style="fill:#34395C;" d="M573.931,1451.684c0,0-1.026,3.502-2.646,9.058c-1.058,3.604-2.376,8.082-3.825,13.023
					c-6.643,22.565-16.244,54.933-18.005,59.491c-2.758,7.105-15.47,27.92-17.372,29.117c-1.912,1.188-51.832,87.037-53.371,91.094
					c0,0-20.492-9.29-24.236-16.103c0,0,34.17-94.606,47.968-111.224c13.296-16.002,12.561-111.525,24.638-140.369
					C539.158,1356.926,581.278,1426.643,573.931,1451.684z"/>
			</g>
		</g>
		<g>
			<g>
				<path style="fill:#EEA886;" d="M702.441,1668.135c0,0,5.477,17.845,7.156,20.296c1.676,2.45-7.448,11.714-18.053,4.73
					c0,0-7.542-21.889-8.166-22.048C682.755,1670.953,702.441,1668.135,702.441,1668.135z"/>
			</g>
		</g>
		<g>
			<g>
				<path style="fill:#393D63;" d="M610.442,1386.479c0,0,42.718,98.622,47.638,113.38c4.921,14.757,2.556,27.38,5.248,33.521
					s41.94,143.614,41.94,143.614s-20.759,11.372-30.148,6.794c0,0-35.544-90.469-43.052-105.28
					c-7.051-13.913-10.975-41.854-20.025-59.826c-6.336-12.583-84.142-108.599-84.828-144.061
					C526.527,1339.16,610.442,1386.479,610.442,1386.479z"/>
			</g>
		</g>
		<g>
			<path style="fill:#EEA886;" d="M574.618,1179.73c0,0,12.207,4.957,16.367,16.135c4.16,11.178,2.404,25.978,2.584,31.09
				c0.18,5.112,8.505,55.174,9.563,56.664c1.058,1.49,17.831,32.4,24.734,48.078c6.903,15.679,21.772,35.789,21.772,35.789
				l-11.461,6.716c0,0-52.226-61.427-55.299-78.238c-3.073-16.813-23.337-67.438-23.337-67.438S549.521,1191.056,574.618,1179.73z"
				/>
		</g>
		<path style="fill:#EEA886;" d="M597.468,1087.183c10.523-0.212,33.681,5.729,36.487,33.681c0,0-1.053,7.484-3.041,13.332
			c-1.988,5.847,2.807,23.389,1.403,24.207c-1.403,0.819-7.134,1.754-7.134,1.754s-6.666,18.829-13.331,18.478
			c-6.666-0.351-31.771-6.276-42.997-30.25C557.628,1124.41,554.978,1088.04,597.468,1087.183z"/>
		<path style="fill:#3B3B40;" d="M633.955,1120.863c0,0-17.386,11.148-34.382,13.02c-16.996,1.871-28.307,19.042-28.307,19.042
			s-24.865-33.075-3.347-58.647C589.438,1068.705,638.555,1088.508,633.955,1120.863z"/>
		<path style="fill:#5B94E2;" d="M622.026,1276.868c-5.23,5.501-0.935,18.243-1.638,25.494c-0.188,1.932-0.795,8.284-1.637,16.7
			c-0.87,8.7-1.993,19.604-3.153,30.12v0.005c-0.463,4.201-0.931,8.34-1.394,12.251c-1.465,12.4-2.863,22.515-3.762,25.041
			c-2.572,7.25-59.918,7.597-82.605-16.962c0,0-3.995-8.079,22.047-55.124c5.221-9.435,0.103-56.237-4.107-68.633
			c-4.21-12.396-5.706-54.524,28.545-67.127c0,0,20.572,17.775,27.589,25.728c7.017,7.953,29.938,36.721,32.043,45.375
			C636.06,1258.391,627.714,1270.885,622.026,1276.868z"/>
		<path style="fill:#A77860;" d="M600.49,1176.052c-1.427,1.034-2.414,3.022-3.093,5.398c-12.269-7.358-18.309-18.394-18.496-18.735
			C585.601,1170.977,600.49,1176.052,600.49,1176.052z"/>
		<path style="fill:#3E6499;" d="M620.389,1302.362c-0.188,1.932-0.795,8.284-1.637,16.7l-0.005,0.004
			c-5.244,4.996-40.885-63.898-24.086-83.508c0,0,11.882,46.244,13.177,48.584C609.139,1286.48,620.389,1302.362,620.389,1302.362z"
			/>
		<g>
			<path style="fill:#5B94E2;" d="M574.896,1181.45c0,0,13.6,6.321,17.947,18.003c4.348,11.682,2.512,27.148,2.699,32.491
				c0.188,5.342,8.889,57.661,9.995,59.219c1.105,1.558,16.555,25.426,23.769,41.812c7.215,16.385,23.453,38.886,23.453,38.886
				l-19.531,10.949c0,0-46.67-58.972-51.091-76.276c-4.723-18.484-22.154-72.947-22.154-72.947S544.961,1186.969,574.896,1181.45z"
				/>
		</g>
		<path style="fill:#3E6499;" d="M550.525,1272.429c-0.832,1.567-1.665,3.13-2.475,4.654c-0.893,1.675-1.768,3.308-2.61,4.884
			c-1.165-14.038-1.707-48.262-1.707-48.262s1.474,10.123,3.031,15.513C548.205,1254.195,550.226,1270.043,550.525,1272.429z"/>
		<path style="fill:#3B3B40;" d="M592.695,1082.627c0,0-44.132-3.415-42.17,50.281c1.962,53.695-7.049,67.813-26.572,92.143
			c-19.524,24.33-2.403,54.667,16.519,39.048c18.924-15.619,40.614-50.884,41.023-88.616
			C581.906,1137.75,592.695,1082.627,592.695,1082.627z"/>
		<path style="fill:#EEA886;" d="M592.557,1132.906c0-3.28-3.509-8.301-9.006-3.975c-5.496,4.327,1.287,20.115,5.73,18.712
			C593.726,1146.24,592.557,1136.296,592.557,1132.906z"/>
		<path style="fill:#2B2D4A;" d="M571.284,1460.741c-1.058,3.604-2.376,8.082-3.825,13.023c-5.032-10.456-16.535-43.7-16.888-44.736
			C553.439,1433.799,570.861,1460.118,571.284,1460.741z"/>
	</g>
	<g>
		<g>
			<path style="fill:#363A5E;" d="M2135.385,1714.81c0,0-15.255,21.431-13.162,24.827c2.093,3.397,18.135,3.882,27.9,0
				c9.765-3.881,9.997-28.997,14.415-39.789c1.849-4.518-2.108-17.853-7.673-18.82s-11.617,1.874-11.617,1.874
				S2151.02,1698.102,2135.385,1714.81z"/>
		</g>
		<g>
			<g>
				<path style="fill:#EEA886;" d="M2145.146,1682.728c0,0-3.209,9.127-4.382,17.84c-0.973,7.228-10.868,22.572-10.403,24.513
					c0.465,1.941,13.02,3.699,18.135-1.305c5.115-5.003,8.406-19.556,9.532-28.26c1.049-8.106,2.373-12.11,2.373-12.11
					S2150.028,1677.391,2145.146,1682.728z"/>
			</g>
		</g>
		<g>
			<path style="fill:#363A5E;" d="M2268.167,1715.165c0,0-14.705,21.075-12.612,24.472c2.092,3.397,18.135,3.882,27.899,0
				c9.765-3.881,9.997-28.997,14.415-39.789c1.85-4.518-2.108-17.853-7.673-18.82c-5.563-0.968-12.09,2.08-12.09,2.08
				S2283.802,1698.457,2268.167,1715.165z"/>
		</g>
		<g>
			<g>
				<path style="fill:#EEA886;" d="M2278.106,1683.107c0,0-1.162,9.947-3.022,16.983c-1.859,7.036-11.857,23.049-11.393,24.989
					c0.465,1.941,13.021,3.699,18.135-1.305c5.115-5.003,9.068-19.49,9.533-28.26c0.465-8.769-1.163-14.488-1.163-14.488
					S2282.989,1677.77,2278.106,1683.107z"/>
			</g>
		</g>
		<g>
			<g>
				<path style="fill:#EEA886;" d="M2204.623,1334.213c0,0-13.09,63.547-16.096,79.547c-3.007,16-11.425,93.489-12.326,106.666
					c-0.902,13.176-13.66,62.822-13.059,67.527c0.602,4.707-18.915,99.237-18.915,99.237s6.665,5.599,13.691,0.506
					c3.614-2.619,42.819-88.5,42.819-112.028c0-32.523,23.048-74.979,26.021-82.256c27.625-67.596,22.187-88.263,25.795-92.654
					c3.607-4.393,3.92,2.713,6.024,12.438s6.611,93.802,9.317,104.469c2.705,10.666,0.604,46.745,2.107,64.94
					c1.503,18.196,8.103,100.502,8.103,100.502s5.112,8.357,12.282,0.218c1.544-1.752,12.382-91.686,12.682-113.332
					c0.301-21.646,0.621-51.5,1.203-60.862c5.57-89.703,19.26-102.514-2.302-165.999
					C2261.602,1224.265,2204.623,1334.213,2204.623,1334.213z"/>
			</g>
		</g>
		<g>
			<path style="fill:#3F446E;" d="M2292.533,1316.453c0,0,37.295,54.465,21.238,170.326c0,0-88.456,12.555-135.846-14.522
				c0,0,19.597-119.456,26.697-138.044C2211.725,1315.625,2292.533,1316.453,2292.533,1316.453z"/>
		</g>
		<g>
			<polygon style="fill:#363A5E;" points="2164.946,1697.963 2164.946,1720.399 2162.156,1720.399 2162.156,1703.058 			"/>
		</g>
		<g>
			<polygon style="fill:#363A5E;" points="2298.278,1697.963 2298.278,1720.399 2295.488,1720.399 2295.488,1703.058 			"/>
		</g>
		<path style="fill:#EEA886;" d="M2248.32,1074.944c0,0-24.977,25.157-16.47,57.553c8.507,32.396,22.174,32.577,37.239,18.642
			c15.065-13.937,23.934-28.596,25.924-44.884C2297.005,1089.966,2271.124,1052.502,2248.32,1074.944z"/>
		<path style="fill:#EEA886;" d="M2243.434,1182.992c0,0,3.703-8.474,6.298-18.016c0.458-1.682,0.882-3.396,1.243-5.105
			c1.274-6.002,1.796-11.914,0.422-15.972c-3.981-11.765,24.977-3.62,24.977-3.62s-5.611,31.13,0,41.627
			C2281.983,1192.403,2243.434,1182.992,2243.434,1182.992z"/>
		<path style="fill:#EDDAD3;" d="M2316.825,1197.821c-4.558-9.097-7.967-12.026-16.776-14.808
			c-4.931-1.557-26.954-7.292-26.954-7.292l-26.454-0.971c0,0-18.195,3.029-32.31,7.917c-14.118,4.889-32.613,31.633-32.613,31.633
			s25.519,59.908,30.406,77.101c4.884,17.192,1.628,43.797,1.628,43.797c30.588,16.651,79.633-1.628,79.633-1.628
			c-3.72-13.434-3.873-29.118-1.92-40.244c0.23-1.313,0.488-2.562,0.775-3.734c0.264-1.073,0.627-2.605,1.049-4.319
			c0.02-0.076,0.038-0.153,0.053-0.229c19.457,1.991,37.698,2.801,38.177-1.102
			C2333.663,1266.366,2323.097,1210.327,2316.825,1197.821z M2303.346,1266.128c-0.784-0.118-2.451-0.127-4.213-0.285
			c2.159-6.028,4.568-11.366,4.568-11.366C2305.081,1258.322,2310.321,1267.173,2303.346,1266.128z"/>
		<path style="fill:#E8734D;" d="M2256.465,1093.043c0,0,11.944,21.718,19.365,29.5c7.42,7.782,6.549,13.961,6.549,13.961
			s28.924-35.679,8.292-57.217c-20.633-21.536-47.237-12.849-55.02,5.973c-7.782,18.822-4.933,41.814-4.933,41.814
			S2230.945,1104.987,2256.465,1093.043z"/>
		<path style="fill:#E8734D;" d="M2264.346,1070.303c0,0-2.888-15.898,22.045-22.223c24.932-6.323,36.134,22.403,33.063,39.928
			c-3.072,17.525-24.391,61.97-12.828,67.751c11.563,5.781,16.08-6.685,16.08-6.685s-3.613,21.86-19.693,16.802
			c-16.079-5.059-13.912-40.583-11.486-54.742S2264.346,1070.303,2264.346,1070.303z"/>
		<path style="fill:#A77860;" d="M2272.377,1147.988c-0.097,0.228-6.4,14.736-22.646,16.988c0.458-1.682,0.882-3.396,1.243-5.105
			C2250.975,1159.871,2259.878,1161.666,2272.377,1147.988z"/>
		<path style="fill:#CFBEB8;" d="M2303.346,1254.688c0,0-1.189,2.51-4.453,12.397c-3.322-27.771-1.586-42.226-1.586-42.226
			C2297.669,1239.7,2303.346,1254.688,2303.346,1254.688z"/>
		<path style="fill:#EDDAD3;" d="M2268.23,1066.969c0,0,17.695,3.399,26.523,17.813c0,0-1.791-13.053-10.599-16.813
			C2275.348,1064.205,2268.23,1066.969,2268.23,1066.969z"/>
		<path style="fill:#CFBEB8;" d="M2293.289,1285.272c-0.422,1.714-0.785,3.246-1.049,4.319c-0.287,1.173-0.545,2.422-0.775,3.734
			c-10.959-5.961-18.83-10.619-18.83-10.619C2275.584,1283.367,2293.289,1285.272,2293.289,1285.272z"/>
		<path style="fill:#EEA886;" d="M2274.575,1176.108l-31.142,25.385l3.207-26.742
			C2246.641,1174.751,2264.8,1170.831,2274.575,1176.108z"/>
		<polygon style="fill:#D6C5BE;" points="2252.433,1197.185 2243.434,1201.493 2274.019,1171.174 		"/>
		<path style="fill:#494F80;" d="M2295.123,1283.075c-4.285,17.763,11.573,57.739,11.573,57.739l-31.432,9.825
			c-4.522,1.413-9.283-1.358-10.28-5.991c-4.209-19.562-14.075-67.709-15.254-94.479c-1.503-34.155,23.364-74.448,23.364-74.448
			c44.2,7.584,32.082,74.448,32.082,74.448s-1.604,4.213-3.749,10.796c0,0,0,0,0,0.005c-0.541,1.651-1.11,3.457-1.704,5.381
			C2298.211,1271.293,2296.583,1277.033,2295.123,1283.075z"/>
		<path style="fill:#494F80;" d="M2243.51,1176.213l0.545-1.462c0,0-22.635,3.442-34.139,9.188
			c-11.504,5.745-33.527,35.428-33.527,35.428l28.806,38.028c0.032,29.224-4.707,81.185-4.707,81.185l13.169,7.589
			c3.541,2.04,7.972-0.462,8.049-4.548c0.371-19.759,1.258-66.679,1.723-89.402c0.599-29.229,21.453-76.497,21.453-76.497
			C2244.418,1175.88,2243.963,1176.045,2243.51,1176.213z"/>
		<path style="fill:#EEA886;" d="M2202.471,1313.24c0,0,21.719,0.845,25.097,0c3.378-0.844,25.915-10.617,27.269-20.27
			c1.354-9.654-52.365,8.651-52.365,8.651V1313.24z"/>
		<polygon style="fill:#6A77BF;" points="2269.857,1283.076 2181.718,1272.76 2221.535,1305.156 		"/>
		<polygon style="fill:#323657;" points="2221.535,1305.156 2269.857,1288.688 2269.857,1283.076 2219.906,1299.1 		"/>
		<g>
			<path style="fill:#EEA886;" d="M2244.253,1266.891c0,0-7.29,0.002-11.373-0.83c-3.159-0.643-11.013,0.244-13.014,2.017
				c-2,1.772-8.362,14.126-9.565,14.88c-1.204,0.754,0.616,2.499,2.729,1.623c0,0,1.94,5.405,6.729,3.381
				c4.788-2.022,8.039-6.441,10.547-7.22c2.508-0.777,17.109-4.704,17.109-4.704S2248.015,1265.575,2244.253,1266.891z"/>
		</g>
		<polygon style="fill:#FAE6DE;" points="2248.303,1169.817 2231.527,1196.387 2223.428,1201.493 2242.302,1175.036 		"/>
		<polygon style="fill:#D6C5BE;" points="2231.527,1196.387 2243.434,1201.493 2246.641,1174.751 2248.303,1169.817 		"/>
		<path style="fill:#494F80;" d="M2205.125,1300.813c0,0-0.904,11.221,0,13.573c0,0-54.355-5.43-59.424-13.031
			c-5.066-7.602-4.886-16.831-4.886-16.831L2205.125,1300.813z"/>
		<polygon style="fill:#252740;" points="2221.535,1305.156 2195.834,1209.597 2098.104,1199.28 2124.889,1287.239 		"/>
		<polygon style="fill:#FAE6DE;" points="2274.019,1171.174 2252.433,1197.185 2264.244,1207.718 2276.99,1176.579 		"/>
		<path style="fill:#3D426B;" d="M2302.152,1258.769c0,0-0.725,2.197-0.725,2.202c-0.541,1.651-1.11,3.457-1.704,5.381
			c-4.17,1.313-40.273-1.336-40.273-1.336S2289.666,1257.921,2302.152,1258.769z"/>
		<path style="fill:#494F80;" d="M2300.069,1265.646c-5.816-0.439-15.343-1.06-23.139-1.093c-12.13-0.052-32.876,1.299-32.876,1.299
			l2.474,12.963c0,0,36.748,5.971,56.817,7.372v0.001c0,0,26.487,3.039,28.455-0.91c1.969-3.95-0.651-29.324-4.96-52.185
			c-4.309-22.862-8.737-36.028-14.004-43.089c-5.267-7.063-33.09-12.564-33.09-12.564l23.601,77.25c0,0,3.385,6.889,3.212,9.862
			c-0.053,0.905-0.681,1.333-1.526,1.494c-0.594-0.052-1.9-0.163-3.701-0.304L2300.069,1265.646z"/>
	</g>
	<g>
		<path style="fill:#EEA886;" d="M2103.258,1347.454c0,0,4.447,10.144,8.707,8.872c4.259-1.271,10.582-0.898,12.565-0.68
			c2.652,0.292,11.284-1.733,10.776,1.493c-0.509,3.226-14.094,3.987-16.937,4.69c-2.842,0.704,7.372,7.926,8.085,10.703
			c0.711,2.777-13.547,18.869-19.919,13.109c-6.373-5.762-9.008-16.124-10.35-16.914c-1.341-0.791-7.191-9.047-7.191-9.047
			L2103.258,1347.454z"/>
		<path style="fill:#EEA886;" d="M2125.315,1370.837c0,0,18.224,18.933,18.286,21.218s-1.114,3.218-2.898,1.52
			s-18.186-17.779-18.186-17.779s17.463,26.057,17.943,27.898c0.28,1.079-1.893,3.012-2.94,2.19
			c-1.047-0.82-19.946-25.629-19.946-25.629s16.258,24.359,16.173,26.036c-0.074,1.468-2.511,2.781-3.85,1.061
			s-17.806-23.453-17.806-23.453s10.633,18.494,9.688,19.911c-0.577,0.867-2.378,2.617-4.962-2.245
			c-2.584-4.861-9.969-15.66-9.969-15.66L2125.315,1370.837z"/>
		<g>
			<path style="fill:#353A3D;" d="M1877.411,1703.201c0,0-6.985,4.986-10.857,8.479c-3.871,3.492-9.137,7.293-12.361,16.206
				c-3.264,9.022,1.879,15.503,10.613,16.037s22.122-6.062,23.426-14.059c1.292-7.918,11.553-6.985,12.89-12.619
				c1.338-5.635-0.45-12.566-0.45-12.566L1877.411,1703.201z"/>
		</g>
		<g>
			<path style="fill:#81807E;" d="M1878.575,1696.652l-1.164,6.549c0,0,3.598,6.657,23.261,1.479l-1.014-6.453L1878.575,1696.652z"
				/>
		</g>
		<path style="fill:#353A3D;" d="M1900.672,1704.68c0,0-4.429,0.581-7.584,1.077c-3.154,0.496-9.402-3.535-15.677-2.556l1.931,7.964
			C1879.342,1711.165,1900.233,1707.253,1900.672,1704.68z"/>
		<g>
			<path style="fill:#353A3D;" d="M2003.012,1701.894c0,0,6.986,4.987,10.857,8.479c3.87,3.493,9.137,7.294,12.361,16.207
				c3.264,9.021-1.879,15.502-10.613,16.037c-8.735,0.534-22.122-6.062-23.427-14.059c-1.292-7.919-11.552-6.986-12.89-12.62
				c-1.338-5.634,0.45-12.566,0.45-12.566L2003.012,1701.894z"/>
		</g>
		<g>
			<path style="fill:#81807E;" d="M2001.848,1695.346l1.164,6.548c0,0-3.598,6.658-23.261,1.479l1.014-6.453L2001.848,1695.346z"/>
		</g>
		<g>
			<path style="fill:#292C47;" d="M2011.258,1546.356c0,14.393-2.06,150.182-2.06,150.182c-1.44,4.798-28.329,6.368-33.127,3.97
				c-4.798-2.398-3.959-137.053-4.845-151.564c-0.886-14.514-12.55-121.283-16.755-120.803
				c-4.206,0.479-27.989,101.056-31.348,112.09c-3.358,11.035-16.582,159.512-16.582,159.512
				c-16.406,5.707-33.178,0.687-33.178,0.687s6.271-150.373,6.277-168.228c0.003-6.625,1.957-11.641,3.834-46.873
				c1.431-26.853,8.903-81.885,13.906-119.747c0.179-1.347,0.349-2.642,0.515-3.88c0.979-7.369,1.715-12.784,2.067-15.381
				c0.153-1.123,0.236-1.721,0.236-1.721c1.347-0.621,2.758-1.193,4.226-1.721c35.138-12.625,102.909,0.738,102.909,0.738
				s0.038,0.333,0.115,0.96c0.09,0.761,0.23,1.954,0.412,3.499c0.391,3.339,0.973,8.309,1.641,14.079
				c0.004,0.042,0.01,0.083,0.014,0.125c0.018,0.172,0.041,0.352,0.061,0.528c2.363,20.533,3.535,31.813,5.393,53.727
				C2015.376,1421.339,2011.258,1531.964,2011.258,1546.356z"/>
		</g>
		<g>
			<path style="fill:#F54242;" d="M1975.73,1150.115c0,0,57.545,12.218,62.343,28.21s14.11,53.551,27.07,94.399
				c7.752,24.438,47.14,80.097,47.14,80.097s-22.537,16.612-22.537,14.373s-53.074-73.063-53.714-81.698
				c-0.64-8.636-16.723-52.798-16.723-52.798s-7.619,84.906-7.619,98.02c0,13.114,3.307,53.417,3.307,53.417
				s-23.14,19.217-64.546,17.058c0,0-58.5,0.245-57.691-22.762c0.713-20.277,5.706-141.746,4.427-142.386
				s-24.253,28.136-22.015,33.676c2.239,5.539,61.696,25.409,61.696,25.409s1.738,6.403-7.499,20.91c0,0-88.811-25.951-89.13-31.389
				s36.939-111.033,49.107-116.562c17.519-7.957,63.929-18.575,63.929-18.575L1975.73,1150.115z"/>
		</g>
		<path style="fill:#353A3D;" d="M1979.751,1703.372c0,0,4.429,0.582,7.584,1.078c3.155,0.496,9.403-3.535,15.677-2.557l-1.93,7.966
			C2001.082,1709.859,1980.19,1705.946,1979.751,1703.372z"/>
		<g>
			<path style="fill:#EEA886;" d="M1977.771,1151.471c-0.277,14.057-32.548,28.852-32.548,28.852s-7.845-26.271-5.126-27.638
				c1.068-0.536,1.408-0.866,1.541-3.255c0.123-2.273-0.022-4.782-0.154-6.375c-0.082-0.994-0.158-1.634-0.158-1.634
				s3.888-4.103,8.835-8.99c8.645-8.548,21.02-21.202,21.038-16.846c0.001,0.23,0.334,0.347,0.265,0.667
				C1969.375,1126.055,1977.771,1151.471,1977.771,1151.471z"/>
		</g>
		<g>
			<path style="fill:#A77860;" d="M1965.682,1127.784c0,0,0,0-0.002,0.001c-0.055,0.083-1.208,1.81-3.179,4.288
				c-4.178,5.255-12.032,13.888-20.862,17.356c0.123-2.273-0.022-4.782-0.154-6.375c-0.904-0.023-1.808-0.128-2.704-0.326
				c2.422-4.229,5.917-8.664,5.917-8.664l5.464-1.634L1965.682,1127.784z"/>
		</g>
		<g>
			<path style="fill:#EEA886;" d="M1970.905,1117.479c-2.355,5.121-4.59,8.834-5.224,10.305c0,0,0,0-0.002,0.001
				c-0.413,0.959-1.537,2.521-3.179,4.288c-4.485,4.832-12.821,11.205-21.016,10.981c-0.904-0.023-1.808-0.128-2.704-0.326
				c-3.309-0.723-7.216-2.26-9.366-6.47c-16.979-33.243-4.687-60.426-4.687-60.426s46.426-13.128,53.689,0.848
				C1983.514,1086.482,1976.438,1105.445,1970.905,1117.479z"/>
		</g>
		<g>
			<path style="fill:#223247;" d="M1924.728,1075.833c0,0-4.312-0.239-5.378-8.413c-1.053-8.076,9.375-13.636,9.375-13.636
				s8.116-4.401,17.75-5.745c6.896-0.962,23.808-2.045,27.774,2.491c0,0,9.638-2.239,12.265,13.761
				c4.166,25.385-14.195,50.033-14.195,50.033s0.156-16.584-3.501-18.781c-3.657-2.197-6.813,3.028-6.813,3.028l-7.481,1.34
				c0,0,10.602-20.495-3.028-21.404C1937.863,1077.598,1932.53,1077.256,1924.728,1075.833z"/>
		</g>
		<g>
			<path style="fill:#EEA886;" d="M1962.209,1091.96c0.712-7.306,13.924-10.095,13.039-2.438
				c-0.885,7.658-7.392,15.015-10.398,14.756C1961.845,1104.02,1961.666,1097.529,1962.209,1091.96z"/>
		</g>
		<g>
			<polygon style="fill:#616161;" points="1966.465,1242.996 1944.837,1354.353 1873.364,1340.471 1892.199,1228.571 			"/>
			<polygon style="fill:#E0CEC7;" points="1961.102,1248.418 1941.892,1347.316 1878.415,1334.988 1895.145,1235.607 			"/>
			<polygon style="fill:#616161;" points="1940.978,1247.06 1942.326,1240.118 1916.664,1235.133 1914.313,1241.881 			"/>
		</g>
		<path style="fill:#C98462;" d="M1952.464,1294.23c0,0,5.465-0.151,7.139-0.393c1.673-0.242,0.568,3.316-1.374,3.988
			C1956.285,1298.497,1952.464,1294.23,1952.464,1294.23z"/>
		<path style="fill:#EEA886;" d="M1955.657,1320.331c0,0-2.386,0.579-3.552,0.323c0,0-2.088-0.628-3.599-0.984
			c-0.479-0.111-0.9-0.198-1.178-0.226c-1.159-0.116-3.738-0.022-6.444-1.083c-2.703-1.057-11.876-5.76-11.876-5.76l2.623-8.528
			l1.977-6.757c0,0,15.503-4.125,18.137-3.431c0.257,0.069,0.509,0.147,0.739,0.238c2.172,0.804,3.451,2.315,4.543,2.867
			c0.4,0.205,4.238,2.511,4.438,3.835c0.28,1.835-0.271,3.222-1.216,4.074c0,0,0.39,3.619-0.953,5.67c0,0,0.468,3.327-1.928,5.402
			C1957.369,1315.973,1957.464,1319.401,1955.657,1320.331z"/>
		<path style="fill:#F54242;" d="M1936.868,1295.13c0,0-2.88,15.566-11.157,25.59c0,0-61.559-25.029-69.326-28.084
			c-7.768-3.055,28.225-98.697,28.225-98.697l26.481,9.015l-14.227,26.904c0,0-7.043,15.072-21.692,39.863
			C1875.172,1269.721,1884.188,1278.282,1936.868,1295.13z"/>
		<path style="fill:#F54242;" d="M1973.612,1211.305c0,0-1.624,29.792,13.271,29.792c14.896,0,13.542-26.813,13.813-29.792H1973.612
			z"/>
		<polygon style="fill:#FFFFFF;" points="1976.261,1211.305 1998.505,1211.305 1998.505,1206.783 		"/>
	</g>
	<g>
		<g>
			<g>
				<g>
					<path style="fill:#EEA886;" d="M1512.602,1319.78c0,0-6.768,4.359-10.661,1.922c-3.312-2.073-9.088-2.36-10.866-2.452
						c-2.378-0.123-9.538-3.219-9.723-0.221c-0.184,2.997,11.559,5.672,13.908,6.725c2.351,1.053-7.998,6.106-9.163,8.52
						c-1.165,2.412,8.177,19.079,14.878,14.789c6.701-4.29,11.028-13.297,12.356-13.816c1.328-0.521,4.999-2.93,4.999-2.93
						L1512.602,1319.78z"/>
				</g>
			</g>
		</g>
		<g>
			<path style="fill:#162D40;" d="M1714.892,1694.61c0,0-15.146,22.146-20.434,26.846c0,0-10.568,5.487-10.896,9.868
				c-0.618,8.284-1.361,16.007,12.541,16.398s22.9-2.888,25.446-11.308c2.545-8.42,8.615-15.664,8.615-15.664v17.622h3.133
				c0,0,0.783-17.035,0.979-20.168c0.195-3.133,2.25-15.179-4.357-20.513C1723.313,1692.357,1714.892,1694.61,1714.892,1694.61z"/>
		</g>
		<g>
			<path style="fill:#EEA886;" d="M1692.443,1722.595c0,0,7.518,2.12,16.457-0.131c8.939-2.252,17.523-23.652,20.133-25.435
				l2.316-8.637h-17.427c0,0-0.604,6.328-3.421,11.798S1692.443,1722.595,1692.443,1722.595z"/>
		</g>
		<g>
			<path style="fill:#162D40;" d="M1616.557,1686.337c0,0-2.271,5.369-6.56,10.965c-3.145,4.104-12.923,20.952-17.231,22.127
				c-4.308,1.175-17.623,3.524-18.797,10.965c-1.176,7.441-1.763,12.729,11.356,13.315c13.119,0.588,21.735,1.371,28.001-7.832
				s16.252-15.861,16.252-15.861v24.012h5.092c0,0,2.35-24.99,3.72-26.752c1.37-1.764,4.896-20.952-7.245-30.938
				C1619.005,1676.351,1616.557,1686.337,1616.557,1686.337z"/>
		</g>
		<g>
			<path style="fill:#EEA886;" d="M1592.766,1719.429c0,0,11.749,2.937,16.252,0c4.504-2.937,19.815-28.815,24.887-30.366
				c0,0-4.914-9.971-17.348-2.726C1616.557,1686.337,1596.095,1715.121,1592.766,1719.429z"/>
		</g>
		<g>
			<path style="fill:#1D3B54;" d="M1721.56,1326.732c0,0,16.566,21.54,21.06,47.093c4.493,25.554-2.653,111.317-2.458,123.947
				c0.196,12.63,11.7,52.915,9.351,76.706c-2.35,23.79-15.209,122.106-15.209,122.106l-28.703-0.514c0,0,5.752-107.153,4.283-117.14
				c-1.469-9.985-6.142-52.473-6.729-56.585c-0.588-4.112-32.701-112.851-32.701-131.272
				C1670.453,1372.65,1681.614,1296.677,1721.56,1326.732z"/>
		</g>
		<g>
			<path style="fill:#1D3B54;" d="M1638.341,1335.152c0,0-27.218,103.878-30.448,118.27c-3.231,14.392-9.693,33.189-9.399,35.833
				s3.427,46.994,3.427,46.994l7.734,150.969h28.687c0,0,9.203-96.045,10.671-115.429c1.469-19.386-10.573-49.345-7.636-57.568
				c2.937-8.225,47.288-103.094,47.288-103.094S1722.245,1304.998,1638.341,1335.152z"/>
		</g>
		<g>
			<path style="fill:#EEA886;" d="M1646.761,1179.681c0,0-14.49,0.587-22.714,9.398c-8.225,8.812-12.336,23.302-14.49,28.001
				s-29.371,48.169-30.938,49.148c-1.566,0.979-29.225,23.298-41.757,35.243c-12.531,11.944-36.959,25.261-36.959,25.261
				l9.203,12.924c0,0,74.212-39.553,83.61-54.043c9.399-14.49,47.974-53.848,47.974-53.848S1671.433,1195.736,1646.761,1179.681z"/>
		</g>
		<g>
			<path style="fill:#285173;" d="M1646.761,1179.681c0,0-14.49,0.587-22.714,9.398c-8.225,8.812-12.336,23.302-14.49,28.001
				s-29.371,48.169-30.938,49.148c-1.566,0.979-24.231,16.543-36.764,28.487c-12.531,11.944-35.393,25.994-35.393,25.994
				l13.364,17.034c0,0,63.587-35.292,73.967-49.096c11.087-14.745,46.896-56.883,46.896-56.883S1671.433,1195.736,1646.761,1179.681
				z"/>
		</g>
		<g>
			<path style="fill:#EDDAD3;" d="M1665.754,1172.044c0,0-14.098,6.657-18.993,7.637c-4.896,0.979-23.889,25.65-27.218,34.658
				c-3.329,9.007,0,22.518,6.853,38.379c6.854,15.859,0.392,21.146,3.525,37.007c3.133,15.861,5.874,49.442,5.287,58.254
				c-0.588,8.812,79.198,10.474,97.409-5.582c0,0-18.303-27.412-20.652-31.328s-0.392-25.259,1.763-30.742
				c2.153-5.482,26.434-46.406,26.434-46.406s1.783-41.509-8.812-49.735c-9.203-7.148-34.285-9.695-38.788-11.263
				C1688.058,1171.355,1674.957,1170.673,1665.754,1172.044z"/>
		</g>
		<g>
			<path style="fill:#D6C5BE;" d="M1661.25,1203.472l-8.566-10.032l7.439-26.41
				C1660.123,1167.029,1662.621,1181.736,1661.25,1203.472z"/>
		</g>
		<g>
			<g>
				<g>
					<path style="fill:#EEA886;" d="M1487.425,1332.902c0,0-19.644,14.496-20.144,16.558s0.348,3.079,2.241,1.8
						c1.893-1.278,19.384-13.455,19.384-13.455s-20.366,21.063-21.146,22.662c-0.456,0.937,1.069,3.005,2.146,2.414
						c1.077-0.591,22.456-20.313,22.456-20.313s-18.98,19.7-19.233,21.232c-0.221,1.341,1.655,2.888,3.163,1.523
						c1.508-1.364,20.158-18.653,20.158-18.653s-12.913,15.208-12.363,16.63c0.337,0.869,1.572,2.719,4.781-1.311
						c3.21-4.027,11.778-12.736,11.778-12.736L1487.425,1332.902z"/>
				</g>
			</g>
		</g>
		<g>
			<path style="fill:#EEA886;" d="M1683.546,1071.985c-8.377-2.948-39.161-10.183-46.407,29.175
				c-7.244,39.358,14.49,67.359,34.463,59.918c19.973-7.44,32.309-34.658,33.483-55.414
				C1706.26,1084.909,1694.12,1075.705,1683.546,1071.985z"/>
		</g>
		<g>
			<path style="fill:#252E3B;" d="M1637.139,1101.16c0,0-1.508-33.679,31.977-34.854c33.482-1.175,42.49,26.393,39.748,46.484
				c-2.74,20.091-16.6,30.689-16.6,30.689s1.203-16.256-5.294-20.477c-6.497-4.22-32.54-12.64-43.896-32.221
				C1643.072,1090.783,1637.809,1096.961,1637.139,1101.16z"/>
		</g>
		<g>
			<path style="fill:#252E3B;" d="M1678.887,1097.594c4.411,13.411,17.491,21.158,29.215,17.302s17.652-17.854,13.241-31.266
				c-4.411-13.412-17.491-21.158-29.215-17.303C1680.404,1070.184,1674.475,1084.182,1678.887,1097.594z"/>
		</g>
		<g>
			<path style="fill:#EEA886;" d="M1714.951,1179.681c0,0,17.77-5.091,27.951,14.489c10.183,19.581,7.637,30.154,9.986,38.967
				c2.349,8.811,11.749,67.75,12.336,70.295c0.588,2.546,9.596,32.504,8.42,41.708c-1.174,9.203-9.594,78.911-9.203,81.261
				c0.392,2.35-16.252-2.252-16.252-2.252s0.686-71.177,0.099-77.051c-0.588-5.875-1.176-36.715-5.581-44.646
				c-4.406-7.93-15.273-56.393-17.623-61.386C1722.734,1236.073,1699.972,1186.044,1714.951,1179.681z"/>
		</g>
		<g>
			<path style="fill:#EEA886;" d="M1659.025,1155.775c0,0,2.813,25.863,2.225,34.283c0,0,14.648,14.68,31.312-17.137
				c0,0-7.011-13.113-1.734-30.982C1696.104,1124.07,1659.025,1155.775,1659.025,1155.775z"/>
		</g>
		<g>
			<path style="fill:#0E1E2B;" d="M1728.381,1466.979v-23.977c0-3.862,3.142-7.004,7.003-7.004h38.023
				c3.861,0,7.004,3.142,7.004,7.004v23.977c0,3.861-3.143,7.003-7.004,7.003h-38.023
				C1731.522,1473.981,1728.381,1470.84,1728.381,1466.979z M1735.384,1440.698c-1.271,0-2.304,1.033-2.304,2.304v23.977
				c0,1.271,1.033,2.304,2.304,2.304h38.023c1.271,0,2.305-1.033,2.305-2.304v-23.977c0-1.271-1.034-2.304-2.305-2.304H1735.384z"/>
		</g>
		<g>
			<g>
				<g>
					<g>
						<g>
							<path style="fill:#EEA886;" d="M1767.904,1448.656c0,0,1.571-2.555,1.714-4.006c0,0,0.057-2.663,0.211-4.554
								c0.052-0.6,0.109-1.121,0.183-1.453c0.302-1.392,1.381-4.354,1.169-7.898c-0.21-3.539-5.049-18.58-5.049-18.58l-8.871,0.308
								l-8.348-0.896c0,0-10.085,19.247-10.271,22.569c-0.016,0.325-0.02,0.646-0.001,0.948c0.116,2.829,1.392,4.884,1.62,6.361
								c0.088,0.542,1.322,5.872,2.785,6.603c2.027,1.018,3.847,0.899,5.192,0.122c0,0,4.06,1.816,6.948,1.029
								c0,0,3.691,1.797,7.006-0.205C1762.193,1449.004,1766.142,1450.406,1767.904,1448.656z"/>
						</g>
					</g>
				</g>
			</g>
		</g>
		<g>
			<polygon style="fill:#EEA886;" points="1661.25,1190.059 1661.25,1203.472 1678.109,1190.873 			"/>
		</g>
		<g>
			<polygon style="fill:#D6C5BE;" points="1661.25,1203.472 1668.251,1194.807 1691.83,1171.307 1699.458,1178.652 			"/>
		</g>
		<g>
			<path style="fill:#285173;" d="M1695.103,1173.555c0,0-19.787,30.03-20.732,43.247c-0.945,13.216,7.354,112.085,14,143.866
				s54.668-3.584,54.668-3.584s-32.271-52.232-19.883-94.055c12.387-41.822,19.357-69.59,19.357-69.59s-8.442-13.459-21.834-15.521
				C1707.286,1175.855,1695.103,1173.555,1695.103,1173.555z"/>
		</g>
		<g>
			<path style="fill:#285173;" d="M1616.549,1218.031c0,0,3.189,29.986,9.26,44.868c0,0,2.546,31.721,2.154,42.882
				c-0.392,11.161-3.035,53.358-3.035,53.358l13.75,8.054c2.771,1.623,6.199-0.627,5.813-3.814
				c-3.895-32.118-16.563-153.951,10.803-186.699l-10.981,3.237C1644.313,1179.917,1621.709,1200.996,1616.549,1218.031z"/>
		</g>
		<g>
			<path style="fill:#EEA886;" d="M1683.604,1115.886c1.218-3.088,5.287-3.955,7.637-2.193c2.35,1.763,3.72,7.05,0,13.903
				C1687.521,1134.448,1674.401,1139.227,1683.604,1115.886z"/>
		</g>
		<g>
			<polygon style="fill:#FAE6DE;" points="1652.684,1193.439 1641.89,1196.422 1660.123,1167.029 			"/>
		</g>
		<g>
			<polygon style="fill:#FAE6DE;" points="1668.251,1194.807 1678.109,1207.73 1698.334,1174.15 1691.83,1171.307 			"/>
		</g>
		<g>
			<path style="fill:#285173;" d="M1714.951,1179.681c0,0,17.77-5.091,27.951,14.489c10.183,19.581,10.133,27.938,11.493,37.498
				c1.284,9.028,13.7,62.659,14.287,65.204c0.588,2.546,4.675,36.069,4.962,48.268c0.219,9.274-1.958,70.1-1.566,72.449
				c0.393,2.35-28.12-4.113-28.12-4.113s3.154-56.099,2.567-61.973c-0.588-5.874-1.84-35.157-4.709-43.764
				c-3.371-10.11-16.684-61.046-19.033-66.039S1699.972,1186.044,1714.951,1179.681z"/>
		</g>
		<g>
			<path style="fill:#A77860;" d="M1659.605,1161.468l0.518,5.093c0,0,11.609,2.271,26.846-16.311
				C1686.969,1150.25,1676.17,1163.423,1659.605,1161.468z"/>
		</g>
		<g>
			
				<rect x="1683.068" y="1463.69" transform="matrix(-1 -1.224647e-16 1.224647e-16 -1 3508.791 3029.5879)" style="fill:#54281A;" width="142.654" height="102.207"/>
		</g>
		<g>
			
				<rect x="1683.068" y="1463.69" transform="matrix(-1 -1.224647e-16 1.224647e-16 -1 3508.791 2986.625)" style="fill:#873F2B;" width="142.654" height="59.244"/>
		</g>
		<path style="fill:#1D3B54;" d="M1618.482,1258.176c0,0-5.235-20.094,2.049-38.859c0,0-5.392,17.223,2.148,33.836
			L1618.482,1258.176z"/>
		<path style="fill:#1D3B54;" d="M1727.201,1255.93c0,0-9.421-32.729-9.998-34.495c0,0,1.538,29.413,5.272,44.077
			C1722.475,1265.512,1724.605,1259.592,1727.201,1255.93z"/>
	</g>
	<g>
		<path style="fill:#587AA3;" d="M1131.179,1770.119h277.845c19.874,0,35.985-16.111,35.985-35.985v-740.01
			c0-19.875-16.111-35.986-35.985-35.986h-277.845c-19.874,0-35.986,16.111-35.986,35.986v740.01
			C1095.192,1754.008,1111.305,1770.119,1131.179,1770.119z"/>
		
			<linearGradient id="SVGID_00000144327673521214346090000002150889135064395655_" gradientUnits="userSpaceOnUse" x1="1081.1621" y1="1363.6101" x2="1494.4795" y2="1363.6101">
			<stop  offset="0" style="stop-color:#FF9F55"/>
			<stop  offset="1" style="stop-color:#FFD255"/>
		</linearGradient>
		<path style="fill:url(#SVGID_00000144327673521214346090000002150889135064395655_);" d="M1120.603,1776.354h334.437
			c21.782,0,39.44-17.658,39.44-39.44V990.306c0-21.782-17.658-39.44-39.44-39.44h-334.437c-21.782,0-39.44,17.658-39.44,39.44
			v746.608C1081.162,1758.696,1098.82,1776.354,1120.603,1776.354z"/>
		<g>
			<g>
				<g>
					<g>
						<path style="fill:#EDDAD3;" d="M1313.608,1234.871l15.13,23.846l13.965,22.007c-0.032-0.118-0.963-3.45-2.54-13.101
							c-0.3-1.832-0.623-3.892-0.968-6.199c-0.101-0.682-0.25-1.359-0.438-2.029c0,0,0,0,0-0.002
							c-5.977-13.778-24.455-24.168-25.131-24.512C1313.615,1234.874,1313.608,1234.871,1313.608,1234.871z"/>
					</g>
				</g>
			</g>
		</g>
		<g>
			<g>
				<g>
					<path style="fill:#FFCA55;" d="M1338.693,1259.23L1338.693,1259.23c0.001,0,0.809,1.671,1.47,8.393l-5.471-8.257
						c0,0-9.771-14.01-13.119-17.652c-3.349-3.644-7.947-6.833-7.947-6.833S1332.85,1244.118,1338.693,1259.23z"/>
				</g>
			</g>
		</g>
		<path style="opacity:0.73;fill:#6BB0FF;" d="M1460.015,994.128v740.013c0,19.867-16.104,35.971-35.987,35.971h-277.841
			c-19.867,0-35.988-16.104-35.988-35.971V994.128c0-19.884,16.121-35.988,35.988-35.988h277.841
			C1443.911,958.14,1460.015,974.245,1460.015,994.128z"/>
		<g>
			<path style="fill:#353A3D;" d="M1237.459,1696.789c0,0,5.79,16.013,15.491,22.793s19.721,16.478,17.077,23.261
				c-2.643,6.782-35.047,3.188-48.599-16.501c-8.563-12.44-17.263-15.215-17.239-21.107c0.022-5.895,9.958-17.67,10.478-19.338
				C1215.31,1683.836,1237.459,1696.789,1237.459,1696.789z"/>
			<path style="fill:#81807E;" d="M1239.856,1690.988c0,0-2.144,5.768-2.398,5.801c-0.254,0.033-25.018-6.604-22.792-10.893
				c1.769-3.406,5.167-7.068,5.167-7.068L1239.856,1690.988z"/>
			<g>
				<path style="fill:#434343;" d="M1176.997,1421.979c0,0,7.159-16.996,12.71-18.061c5.55-1.064,0.99,3.362,0.99,3.362
					s-7.046,11.678-9.424,16.578C1181.159,1424.097,1176.997,1421.979,1176.997,1421.979z"/>
			</g>
			<g>
				<path style="fill:#EEA886;" d="M1212.107,1390.451c0,0-1.476,8.233-1.776,16.569c-0.302,8.335,1.022,11.495-1.447,15.458
					c-1.862,2.99-6.396,4.124-6.953,2.756c-0.558-1.369,3.464-14.139-1.782-15.933s-3.973,16.172-6.678,13.927
					c-2.706-2.245-12.355-13.048-9.35-19.138c3.007-6.09,9.424-8.985,12.482-18.59c2.773-8.715,6.732-11.36,6.732-11.36
					L1212.107,1390.451z"/>
			</g>
			<g>
				<path style="fill:#545554;" d="M1200.853,1408.956c0,0,6.327,4.243-2.428,27.635l-7.413-4.108c0,0,4.755-12.959,4.914-20.881
					C1195.926,1411.602,1197.96,1407.14,1200.853,1408.956z"/>
			</g>
			<g>
				<polygon style="fill:#545554;" points="1218.888,1449.823 1163.696,1410.668 1137.092,1486.304 1185.188,1544.543 				"/>
			</g>
			<path style="fill:#353A3D;" d="M1488.424,1563.277v148.479c-15.199-46.12-48.399-145.84-56.399-162.16
				c-6.96-14.279-70.12-96.68-74.761-90.8c-4.64,5.88-30.52,74.96-33.959,91.96c-3.4,17-80.84,143.2-80.84,143.2
				s-1.36-0.28-3.44-0.84c-5.4-1.6-15.72-5.32-20.96-12.24c-0.6-0.8-1.16-1.6-1.6-2.479c0,0,56.879-123.48,62.239-146.841
				c1.88-8.159,4-48.039,11.48-89.64c3.359-18.68,7.84-37.68,13.8-54.32c2.359-6.52,9.24-9.239,18.439-9.52
				c1.561-0.08,3.2-0.04,4.881,0.04c2.8,0.16,5.76,0.479,8.84,0.92c6.96,1.04,14.52,2.84,22,4.96c6.32,1.84,12.64,3.88,18.52,5.96
				c6.84,2.44,13.16,4.92,18.4,7.04c1.72,0.68,3.32,1.36,4.8,1.96c1.64,0.68,3.08,1.32,4.32,1.84c3.28,1.44,5.2,2.32,5.2,2.32
				s9.959,17.72,22.319,40.24c17,30.96,38.56,70.88,45.16,86.239C1480.864,1538.877,1484.904,1550.917,1488.424,1563.277z"/>
			<path style="fill:#DECBC4;" d="M1465.064,1302.837l23.359,26.12v43.24c-16.72-15.881-36.399-36.16-43.72-42.601
				c-1.28-1.12-2.2-1.84-2.64-2c-1.04-0.399-2.92-3-5.2-6.92c-0.64-1.08-1.36-2.319-2.08-3.6c-1.08-1.96-2.2-4.08-3.36-6.32
				c-0.76-1.479-1.56-3-2.359-4.56c-0.801-1.561-1.561-3.16-2.36-4.721c-1.56-3.16-3.12-6.319-4.52-9.279
				c-1.08-2.24-2.08-4.36-3-6.28c-0.601-1.32-1.2-2.52-1.72-3.64c-0.521-1.12-1-2.12-1.4-3.04c-1-2.16-1.641-3.561-1.801-3.88
				c0.08,1,0.761,8.64-0.199,18.52c-0.4,4.32-1.16,9.08-2.4,13.92c-1.479,5.8-2.199,13.48-2.479,21.561v0.239
				c0,0.2-0.04,0.36-0.04,0.561v0.24c-0.4,14.72,0.6,30.6,1.04,39.04c0.64,13.279-3.8,19.159-3.8,19.159s-0.601-0.079-1.681-0.239
				l-2.88-0.4l-3.28-0.439l-4.439-0.641l-17.24-2.4l-6.28-0.88l-1.439-0.199l-10.92-1.561l-22.04-3.08l-8.8-1.239l-4.761-0.681
				l-11.6-1.64l-5.2-0.76c-0.04,0-0.08,0-0.08,0s-4.48-31.641-4.8-48.721c-0.32-15.96-9-48.64-10.16-52.92
				c-0.04-0.12-0.08-0.24-0.08-0.32c0-0.039,0-0.039,0-0.039c0-0.04,0-0.04-0.04-0.04c0-0.04,0-0.081,0-0.081
				s-25.16,26.44-30.04,37.961c-1.2,2.84-4.399,9.6-8.68,18.24c-0.08,0.199-0.16,0.399-0.24,0.56c-11.6,23.479-30.64,60.16-38,68.76
				c-0.88,1.12-1.64,1.76-2.16,1.84c-0.239,0.04-0.439,0.08-0.72,0.08c-4.6,0.04-12.32-6.359-16.12-9.8
				c-1.4-1.24-2.239-2.08-2.239-2.08s0.319-0.76,0.959-2.12c5.36-12.28,32.521-74.04,39.36-88.56c0.64-1.36,1.12-2.32,1.36-2.76
				c0.119-0.16,0.24-0.44,0.399-0.761c5.12-9.88,39.921-85.52,45.24-89.319c0.601-0.44,1.56-0.96,2.8-1.641
				c0.401-0.16,0.881-0.399,1.36-0.68c0.04,0,0.12-0.04,0.2-0.08c0.88-0.4,1.8-0.84,2.84-1.32c0.32-0.16,0.68-0.319,1.04-0.479
				c0.72-0.32,1.44-0.64,2.2-1c4.199-1.84,9.16-3.92,13.96-5.88c1.359-0.561,2.68-1.08,3.92-1.561c1.88-0.76,3.72-1.439,5.399-2.08
				c0.24-0.08,0.44-0.16,0.641-0.239c5.64-2.16,9.92-3.641,10.8-3.681h0.72c0.36,0,0.84,0.04,1.4,0.08
				c6.96,0.4,27.72,2.32,34.4,2.96c1.359,0.12,2.119,0.2,2.119,0.2s3.2,1.48,8,3.64l0.04,0.04l0.4,0.16c2.8,1.28,6.08,2.8,9.559,4.4
				c7.28,3.359,15.521,7.2,22.04,10.279c6.24,3,15.681,8.08,16.4,8.641L1465.064,1302.837z"/>
			<path style="fill:#495055;" d="M1406.4,1388.6c0,0,2.318,2.772,2.989,14.515c0,0-95.313-11.119-105.39-15.501
				c0,0-0.394-12.94,1.744-13.165C1308.092,1374.201,1406.4,1388.6,1406.4,1388.6z"/>
			<path style="fill:#EEA886;" d="M1325.12,1182.465c0.296,14.959,29.259,23.142,29.259,23.142s12.115-15.188,9.222-16.643
				c-1.137-0.571-1.599-2.839-1.74-5.381c-0.131-2.419,0.023-5.089,0.165-6.784c0.086-1.059,0.168-1.739,0.168-1.739
				s-4.139-4.365-9.402-9.567c-9.2-9.096-21.848-20.749-21.867-16.112c-0.001,0.245,0.033,0.538,0.107,0.878
				C1333.254,1160.69,1325.12,1182.465,1325.12,1182.465z"/>
			<path style="fill:#5D676C;" d="M1327.522,1376.742c0,0-2.081,13.118-2.261,16.538l-4.409-0.879c0,0,1.214-13.882,1.929-16.207
				L1327.522,1376.742z"/>
			<path style="fill:#353A3D;" d="M1398.449,1387.068c0,0,1.671,11.925,1.711,16.428l-4.665-0.606c0,0-0.956-14.891-1.489-16.445
				L1398.449,1387.068z"/>
			<path style="fill:#A77860;" d="M1336.274,1160.548c0,0,0,0,0.002,0.002c0.057,0.087,1.286,1.925,3.383,4.563
				c4.445,5.593,12.804,14.78,22.201,18.471c-0.131-2.419,0.023-5.089,0.165-6.784c0.962-0.024,1.923-0.136,2.876-0.347
				c-2.576-4.5-6.297-9.221-6.297-9.221l-5.813-1.739L1336.274,1160.548z"/>
			<path style="fill:#EEA886;" d="M1330.715,1149.582c2.506,5.449,4.885,9.4,5.56,10.966c0,0,0,0,0.002,0.002
				c0.438,1.02,1.636,2.681,3.383,4.563c4.773,5.143,13.645,11.924,22.366,11.687c0.962-0.024,1.923-0.136,2.876-0.347
				c3.522-0.77,7.681-2.405,9.969-6.886c18.069-35.377,4.987-64.305,4.987-64.305s-49.406-13.972-57.137,0.901
				C1317.297,1116.596,1324.828,1136.775,1330.715,1149.582z"/>
			<path style="fill:#E2D2CA;" d="M1379.857,1105.262c0,0,4.588-0.254,5.723-8.953c1.121-8.595-1.145-10.977-1.145-10.977
				s-20.397-8.538-27.722-9.648c-7.324-1.111-25.335-2.177-29.557,2.65c0,0-10.257-2.383-13.052,14.645
				c-4.433,27.014,15.107,53.244,15.107,53.244s-0.167-17.647,3.725-19.986c3.892-2.338,7.252,3.224,7.252,3.224l7.961,1.425
				c0,0-12.092-26.108,2.413-27.076C1365.067,1102.842,1371.554,1106.776,1379.857,1105.262z"/>
			<path style="fill:#EEA886;" d="M1339.97,1122.424c-0.758-7.774-14.818-10.743-13.876-2.594
				c0.941,8.149,7.865,15.979,11.064,15.703C1340.356,1135.258,1340.547,1128.351,1339.97,1122.424z"/>
			<path style="fill:#3C4145;" d="M1260.642,1310.272c-5.519,11.237-39.993,86.368-46.038,87.482
				c-6.045,1.109-22.146-12.808-22.146-12.808s38.469-84.8,41.7-90.5c3.233-5.7,40.142-86.166,45.621-90.094
				c3.165-2.271,16.831-8.096,28.339-12.631c2.104-0.832,4.141-1.622,6.025-2.337c2.441,2.717,41.688,47.071,38.002,86.391
				c-1.106,11.814-2.595,31.079-5.862,51.364c-3.384,21.077-8.846,44.905-12.376,62.887c-6.386,32.528-20.471,63.524-20.471,63.524
				l-36.753-18.394c-5.785-2.896-8.499-9.648-6.324-15.741c8.267-23.15,24.776-69.917,24.788-90.231c0,0-1.306-45.868-4.467-56.802
				C1290.682,1272.384,1266.973,1297.387,1260.642,1310.272z"/>
			<path style="fill:#3C4145;" d="M1488.424,1328.077v45.6c-16.359-15.96-36.359-37.36-43.72-44.08c-1.28-1.12-2.2-1.84-2.64-2
				c-1.04-0.399-2.92-3-5.2-6.92c-0.68-1.08-1.36-2.319-2.08-3.6c-1.08-1.96-2.2-4.08-3.36-6.32c-0.76-1.479-1.56-3-2.359-4.56
				c-0.801-1.561-1.561-3.16-2.36-4.721c-1.56-3.16-3.12-6.319-4.52-9.279c-1.08-2.24-2.12-4.36-3-6.28
				c-0.601-1.32-1.2-2.52-1.72-3.64c-0.521-1.12-1-2.12-1.4-3.04c-1-2.16-1.641-3.561-1.801-3.88c1.44,6,0.921,12.16-0.199,18.52
				c-1.96,11.16-5.84,22.92-4.88,35.48v0.239c3.04,38.12,19.079,92.08,23.84,107.36c0.68,2.24,0.2,4.6-1.32,6.4
				c-0.16,0.279-0.4,0.52-0.64,0.76l-11.44,10.56c0,0-9.92-30.56-15.04-52.12c-0.119-0.6-0.279-1.199-0.399-1.76
				c-1.16-5.04-2-9.479-2.36-12.84v-0.04c-0.92-8.56-2.76-18.56-4.76-29.2c-1.96-10.64-4-21.96-5.24-33.12
				c-3.2-28.319-6.48-56.399-8.84-72.88c-0.76-5.359-1.52-10.319-2.24-14.88c-5.08-31.96-8.96-44.84-8.96-44.84l0.24-0.2
				c2.8,1.28,6.08,2.8,9.559,4.4c7.28,3.359,15.521,7.2,22.04,10.279c6.24,3,15.681,8.08,16.4,8.641l45.04,86.72L1488.424,1328.077z
				"/>
			<path style="fill:#51565C;" d="M1322.185,1226.51l14.09,7.947l-6.02,6.14l16.029,86.544c3.268-20.285,4.756-39.55,5.862-51.364
				c3.686-39.319-35.56-83.674-38.002-86.391c-1.885,0.715-3.921,1.505-6.025,2.337L1322.185,1226.51z"/>
			<path style="fill:#51565C;" d="M1371.583,1192.607c0,0,5.265,17.194,11.4,60.11c2.353,16.487,5.653,44.547,8.825,72.869
				l3.28-81.052l-6.713-7.272l5.967-7.458l-12.769-32.602c-3.486-1.612-6.77-3.12-9.547-4.395L1371.583,1192.607z"/>
			<path style="fill:#3C4145;" d="M1308.119,1191.723c-11.508,4.535-28.642,10.435-31.806,12.707
				c-5.48,3.927-38.922,84.317-42.154,90.018L1308.119,1191.723z"/>
			<polygon style="fill:#545554;" points="1185.188,1544.543 1176.997,1543.238 1130.693,1485.25 1158.474,1409.209 
				1163.696,1410.668 			"/>
			<path style="fill:#F5E2D9;" d="M1313.438,1189.56l11.683-7.095c0,0,0.327,6.406,29.259,23.142l-8.217,23.142L1313.438,1189.56z"
				/>
			<path style="fill:#F5E2D9;" d="M1362.075,1185.692c0,0-0.455,6.915-7.696,19.914l16.035,20.903l1.169-33.902L1362.075,1185.692z"
				/>
			<path style="fill:#464157;" d="M1354.336,1205.606c0,0-3.108,12.43-1.989,15.911c0,0,6.833,2.486,11.745-0.622
				C1364.092,1220.896,1360.612,1212.194,1354.336,1205.606z"/>
			<g>
				<path style="fill:#AD9F99;" d="M1370.4,1384.883c1.739-8.771,0.084-35.053,0.013-36.166l-1.489,0.095
					c0.018,0.271,1.715,27.2,0.013,35.781L1370.4,1384.883z"/>
			</g>
			<path style="fill:#69737A;" d="M1358.232,1380.838c0,0,14.024,1.675,18.662,2.831l-0.607,15.72l-18.365-1.959L1358.232,1380.838z
				"/>
			<path style="fill:#464157;" d="M1361.302,1219.777c0,0,13.809,38.845,15.549,83.098c1.74,44.252-2.938,55.689-2.938,55.689
				l-17.276,15.548l-5.782-20.211c0,0,15.598-49.162,7.243-106.032c-1.514-10.305-3.762-29.833-3.762-29.833L1361.302,1219.777z"/>
		</g>
		<path style="opacity:0.98;fill:#A3CDFF;" d="M1488.424,994.117v740c0,19.88-16.119,36-36,36h-306.239c-19.88,0-36-16.12-36-36
			v-740c0-19.88,16.12-36,36-36h306.239C1472.305,958.117,1488.424,974.237,1488.424,994.117z"/>
		<g>
			<g>
				<g>
					<path style="fill:#EEA886;" d="M1520.027,1368.722c0,0,5.619,8.185,8.564,8.459c2.944,0.275,7.084,2.897,9.66,3.648
						c2.576,0.75,10.401,0.313,12.686,2.031c0.935,0.702,4.903,7.28,6.962,8.5c2.061,1.22,6.549,3.184,5.396,4.935
						c-1.152,1.75-5.682,1.089-5.682,1.089s1.806,1.226,1.268,3.064c-1.046,3.575-3.352,4.031-3.352,4.031s0.996,2.452,0.184,3.839
						c-1.791,3.059-4.033,3.436-4.033,3.436s0.002,1.996-1.648,3.77c-2.112,2.269-5.073,1.52-5.073,1.52s-1.995,3.431-4.186,3.104
						c-2.191-0.328-3.586-1.728-5.198-2.441c-1.611-0.713-13.439-11.313-18.482-22.024c-5.043-10.709-13.155-16.971-13.155-16.971
						L1520.027,1368.722z"/>
				</g>
			</g>
			<g>
				<path style="fill:#DB9C7C;" d="M1556.885,1396.071c0,0-10.279-8.886-14.875-8.089c-4.597,0.798-1.07,4.211-1.07,4.211
					s-3.429-3.435-6.513-0.972c-3.083,2.462,1.263,6.238,1.263,6.238s-3.314-1.901-5.427,1.609
					c-2.112,3.511,2.222,5.817,2.222,5.817s-6.203-0.081-4.405,4.644c3.036,7.978,12.695,10.616,12.695,10.616
					s2.388,0.412,4.186-3.104c0,0,5.795,1.417,6.722-5.289c0,0,6.496-2.316,3.85-7.274
					C1555.531,1404.479,1562.306,1401.61,1556.885,1396.071z"/>
			</g>
			<path style="fill:#353A3D;" d="M1525.346,1737.93c0,0,14,11.252,26.459,12.041c12.46,0.788,26.806,4.03,28.144,11.59
				c1.339,7.561-37.842,17.162-52.837,11.787c-22.38-8.02-23.897-4.24-27.109-9.563c-3.212-5.323-0.719-21.383-1.165-23.17
				C1498.285,1738.406,1525.346,1737.93,1525.346,1737.93z"/>
			<path style="fill:#81807E;" d="M1522.977,1731.832c0,0,2.58,5.928,2.369,6.098c-0.21,0.168-26.502,7.782-26.509,2.686
				c-0.005-4.134,0.213-8.662,0.213-8.662L1522.977,1731.832z"/>
			<path style="fill:#353A3D;" d="M1528.465,1731.597c0.318,1.561-1.44,2.561-4.24,3.16c-6.721,1.521-19.561,0.92-25.28,0.561
				c-1.761-0.12-2.84-0.2-2.84-0.2s-53.601-164.16-64.08-185.521c-6.96-14.279-70.12-96.68-74.761-90.8
				c0,0-11.159-25.56-16.279-64.479c-0.641-4.721-1.16-9.641-1.6-14.721c6.039,1.04,12.399,2.601,18.76,4.4
				c6.32,1.84,12.64,3.88,18.52,5.96c6.84,2.44,13.16,4.92,18.4,7.04c1.72,0.68,3.32,1.36,4.8,1.96c1.64,0.68,3.08,1.32,4.32,1.84
				c3.28,1.44,5.2,2.32,5.2,2.32s9.959,17.72,22.319,40.24c17,30.96,38.56,70.88,45.16,86.239
				c10.601,24.601,21.479,68.801,22.919,86.08C1501.624,1637.438,1527.184,1725.237,1528.465,1731.597z"/>
			<path style="fill:#DECBC4;" d="M1530.264,1375.757c0,0-0.48,0.561-1.279,1.521c-2.76,3.24-9.44,10.92-13.68,14.96
				c-0.16,0.12-0.28,0.239-0.4,0.359c-0.48,0.44-1.439,0.24-2.84-0.479c-12.12-6.28-55.6-52.2-67.36-62.521
				c-0.8-0.68-1.479-1.239-1.96-1.6c-0.08-0.08-0.16-0.12-0.279-0.16c-0.16-0.12-0.28-0.2-0.4-0.24c-1.04-0.399-2.92-3-5.2-6.92
				c-0.64-1.08-1.36-2.319-2.08-3.6c-0.52-1-1.08-2-1.64-3.04c-0.561-1.08-1.12-2.16-1.721-3.28c-0.76-1.479-1.56-3-2.359-4.56
				c-2.76-5.44-5.561-11.16-7.96-16.2c-0.561-1.24-1.16-2.44-1.681-3.6c-0.92-1.921-1.72-3.641-2.439-5.16
				c-0.32-0.681-0.6-1.32-0.88-1.921c-0.2-0.479-0.4-0.879-0.601-1.279c-0.16-0.4-0.319-0.76-0.479-1.04
				c-0.36-0.8-0.601-1.36-0.72-1.6c0-0.04-0.041-0.04-0.041-0.04c0.08,1,0.761,8.64-0.199,18.52c0,0.04,0,0.04,0,0.04
				c-0.4,4.32-1.16,9.04-2.4,13.88c-1.479,5.8-2.199,13.48-2.479,21.561v0.239c0,0.2-0.04,0.36-0.04,0.561v0.24
				c-0.4,14.72,0.6,30.6,1.04,39.04c0.64,13.279-3.8,19.159-3.8,19.159s-0.601-0.079-1.681-0.239c-0.72-0.12-1.72-0.24-2.88-0.4
				l-3.28-0.439l-4.439-0.641l-17.24-2.4l-6.28-0.88l-1.439-0.199l-10.92-1.561l-18.881-2.64v-0.28c-0.319-3.84-0.56-7.8-0.72-11.84
				v-0.04c-0.239-5.92-0.28-12.04-0.12-18.32c0.44-16.08,1.961-30.24,3.681-43.68c2.56-19.28,5.56-37.04,6.599-56.8
				c0.441-8.561,0.521-17.44,0.04-27v-0.04c-0.32-5.76-0.8-11.8-1.561-18.12c-0.079-0.64-0.159-1.28-0.279-1.92
				c-0.561-4.48-1.24-9.12-2.08-13.92c6.72,0.6,13.32,1.2,16.561,1.52h0.039c1.32,0.12,2.08,0.2,2.08,0.2s3.2,1.48,8,3.64l0.04,0.04
				l0.4,0.16c2.8,1.28,6.08,2.8,9.559,4.4c7.28,3.359,15.521,7.2,22.04,10.279c6.24,3,15.681,8.08,16.4,8.641l45.04,86.72
				l63.64,71.16L1530.264,1375.757z"/>
			<path style="fill:#495055;" d="M1409.385,1403.117c0,0-1.761-0.2-4.801-0.561c-1.279-0.159-2.8-0.359-4.519-0.56
				c-1.4-0.16-3-0.36-4.68-0.56c-5.36-0.681-11.92-1.48-19.08-2.4c-5.881-0.72-12.12-1.52-18.4-2.4
				c-5.72-0.76-11.439-1.52-16.92-2.319c-0.641-4.721-1.16-9.641-1.6-14.721c0-0.12,0-0.279-0.041-0.399v-0.28
				c6.08,0.88,12.521,1.76,18.881,2.68c3.72,0.561,7.399,1.08,10.96,1.601c0.479,0.08,0.96,0.12,1.439,0.2
				c2.12,0.319,4.24,0.6,6.24,0.92c6.479,0.92,12.44,1.8,17.24,2.479c1.6,0.24,3.08,0.44,4.439,0.641
				c1.24,0.199,2.32,0.359,3.28,0.479v0.04c1.16,0.16,2.16,0.28,2.88,0.4c1.08,0.16,1.681,0.239,1.681,0.239
				S1408.704,1391.357,1409.385,1403.117z"/>
			<path style="fill:#EEA886;" d="M1354.385,1205.597h-0.041l-0.039-0.04c-0.521-0.119-3.32-0.96-7.041-2.479
				c-0.079-0.64-0.159-1.28-0.279-1.92c-0.561-4.48-1.24-9.12-2.08-13.92c-0.641-3.72-1.36-7.521-2.2-11.44
				c-0.64-3.08-1.239-6.08-1.68-9v-0.04c-0.521-0.56-0.96-1.12-1.36-1.64c0.4,0.439,0.84,0.88,1.28,1.32
				c-0.28-1.601-0.521-3.16-0.72-4.681v-0.04c-0.441-3.04-0.76-5.96-1.04-8.8c4.159,3.44,9.28,8.28,13.599,12.56
				c5.28,5.2,9.401,9.601,9.401,9.601s-0.08,0.68-0.16,1.72c-0.12,1.68-0.28,4.36-0.16,6.8c0.04,0.721,0.08,1.44,0.2,2.08
				c0.24,1.601,0.72,2.88,1.519,3.28C1366.504,1190.438,1354.385,1205.597,1354.385,1205.597z"/>
			<path style="fill:#353A3D;" d="M1398.449,1387.068c0,0,1.671,11.925,1.711,16.428l-4.665-0.606c0,0-0.956-14.891-1.489-16.445
				L1398.449,1387.068z"/>
			<path style="fill:#A77860;" d="M1362.024,1176.797c-0.12,1.68-0.28,4.36-0.16,6.8c-8.521-3.359-16.16-11.199-20.84-16.8v-0.04
				c-0.521-0.56-0.96-1.12-1.36-1.64c0.4,0.439,0.84,0.88,1.28,1.32c-0.28-1.601-0.521-3.16-0.72-4.681l12.559,3.72l5.84,1.761
				c0,0,3.72,4.72,6.28,9.2C1363.944,1176.677,1362.984,1176.757,1362.024,1176.797z"/>
			<path style="fill:#EEA886;" d="M1374.864,1169.557c-2.28,4.48-6.44,6.12-9.96,6.881c-0.96,0.239-1.92,0.319-2.88,0.359
				c-8,0.2-16.12-5.479-21.08-10.359c-0.28-1.601-0.521-3.16-0.72-4.681v-0.04c-0.441-3.04-0.76-5.96-1.04-8.8
				c-0.601-6.56-0.8-12.56-0.601-18.12c0.04-2.399,0.16-4.72,0.36-6.92c0.16-2.359,0.399-4.64,0.76-6.8
				c1.2-8.68,3.28-15.84,5.681-21.68c16.08,0.68,34.479,5.88,34.479,5.88S1392.944,1134.197,1374.864,1169.557z"/>
			<path style="fill:#E2D2CA;" d="M1385.584,1096.317c-1.119,8.68-5.72,8.96-5.72,8.96c-8.32,1.479-14.8-2.44-29.32-1.48
				c-14.479,0.96-2.399,27.08-2.399,27.08l-7.96-1.4c0,0,0,0-0.04-0.039c-0.08-0.16-0.521-0.841-1.2-1.561
				c0.16-2.359,0.399-4.64,0.76-6.8c1.2-8.68,3.28-15.84,5.681-21.68c6.439-15.761,15.239-22.08,15.959-22.601
				c0.041,0,0.041,0,0.041,0c8.959,2.641,23.039,8.521,23.039,8.521S1386.704,1087.717,1385.584,1096.317z"/>
			<path style="fill:#EEA886;" d="M1340.145,1129.438c-0.16,2.359-0.641,4.359-1.561,5.359c0.04-2.399,0.16-4.72,0.36-6.92
				c0.16-2.359,0.399-4.64,0.76-6.8c0.16,0.44,0.24,0.88,0.28,1.36C1340.225,1124.797,1340.305,1127.277,1340.145,1129.438z"/>
			<path style="fill:#3C4145;" d="M1352.145,1275.757c-1.12,11.84-2.601,31.08-5.84,51.4c-2.08,12.92-4.961,26.84-7.681,39.88
				c-0.239-5.92-0.28-12.04-0.12-18.32c0.44-16.08,1.961-30.24,3.681-43.68c2.56-19.28,5.56-37.04,6.599-56.8
				C1351.544,1257.277,1352.984,1266.677,1352.145,1275.757z"/>
			<path style="fill:#3C4145;" d="M1410.287,1329.828c-1.53-19.761,7.894-38.064,3.97-54.552l0.018,0.035
				c0.839,1.828,23.048,50.537,27.78,52.272c4.826,1.775,64.985,69.205,70.033,64.495c5.385-5.03,17.692-19.356,17.692-19.356
				l-64.735-69.887l-45.024-86.718c-0.728-0.577-10.165-5.653-16.411-8.628c-6.503-3.097-14.734-6.916-22.035-10.287
				c-3.486-1.612-6.77-3.12-9.547-4.395l-0.228,0.18c0,0,5.048,16.813,11.184,59.729c2.353,16.487,5.653,44.547,8.825,72.869v0.012
				c2.504,22.325,8.215,45.235,10.031,62.333c1.88,17.704,17.799,66.74,17.799,66.74l11.445-10.564
				c1.966-1.815,2.713-4.598,1.921-7.154C1428.261,1421.646,1413.234,1367.911,1410.287,1329.828z"/>
			<path style="fill:#51565C;" d="M1352.145,1275.757c-1.12,11.84-2.601,31.08-5.84,51.4l-4.12-22.12
				c2.56-19.28,5.56-37.04,6.599-56.8C1351.544,1257.277,1352.984,1266.677,1352.145,1275.757z"/>
			<path style="fill:#51565C;" d="M1371.583,1192.607c0,0,5.265,17.194,11.4,60.11c2.353,16.487,5.653,44.547,8.825,72.869
				l3.28-81.052l-6.713-7.272l5.967-7.458l-12.769-32.602c-3.486-1.612-6.77-3.12-9.547-4.395L1371.583,1192.607z"/>
			<path style="fill:#F5E2D9;" d="M1354.385,1205.597v0.04l-0.121,0.24v0.12l-5.439,15.2c-0.32-5.76-0.8-11.8-1.561-18.12
				c-0.079-0.64-0.159-1.28-0.279-1.92c2.2,1.399,4.64,2.84,7.32,4.399l0.039,0.04H1354.385z"/>
			<path style="fill:#F5E2D9;" d="M1362.075,1185.692c0,0-0.455,6.915-7.696,19.914l16.035,20.903l1.169-33.902L1362.075,1185.692z"
				/>
			<path style="fill:#464157;" d="M1354.336,1205.606c0,0-3.108,12.43-1.989,15.911c0,0,6.833,2.486,11.745-0.622
				C1364.092,1220.896,1360.612,1212.194,1354.336,1205.606z"/>
			<g>
				<path style="fill:#AD9F99;" d="M1370.4,1384.883c1.739-8.771,0.084-35.053,0.013-36.166l-1.489,0.095
					c0.018,0.271,1.715,27.2,0.013,35.781L1370.4,1384.883z"/>
			</g>
			<path style="fill:#69737A;" d="M1358.232,1380.838c0,0,14.024,1.675,18.662,2.831l-0.607,15.72l-18.365-1.959L1358.232,1380.838z
				"/>
			<path style="fill:#464157;" d="M1361.302,1219.777c0,0,13.809,38.845,15.549,83.098c1.74,44.252-2.938,55.689-2.938,55.689
				l-17.276,15.548l-5.782-20.211c0,0,15.598-49.162,7.243-106.032c-1.514-10.305-3.762-29.833-3.762-29.833L1361.302,1219.777z"/>
		</g>
	</g>
</g>
</svg>
